<?xml version="1.0" encoding="UTF-8"?>
<svg xmlns="http://www.w3.org/2000/svg" viewBox="0 0 395 605">
  <path d="m576 123.9s-40.306-50.545-106.16-79.607c-2.325-1.1901-4.697-2.4114-7.132-3.6484-2.527-1.0022-5.087-2.0356-7.708-3.0848-2.637-0.9864-5.243-2.2548-8.021-3.0847-2.808-0.7986-5.648-1.6284-8.519-2.4583-11.532-3.3353-24.187-5.183-37.419-5.7937-13.233-0.501-27.058 0.3758-40.993 2.9282-7.053 0.7046-13.903 3.022-20.894 4.7601l-10.392 2.7402-10.798 3.6015c-14.512 4.7602-28.244 9.8335-42.272 15.095-13.981 5.3396-27.744 10.585-41.055 15.674-13.388 5.1046-26.792 9.583-39.775 13.09-13.014 3.5545-25.903 5.3866-37.793 6.1851-11.953 0.3915-22.907-0.3445-32.41-1.9573-4.713-0.9395-9.175-1.6284-13.201-2.6149-3.979-1.1118-7.631-2.1296-10.939-3.0534-6.6004-1.8164-11.484-3.9929-14.949-5.1203-3.4174-1.2371-5.2431-1.9104-5.2431-1.9104l3.9947-10.695s1.7633 0.548 5.087 1.5815c3.3393 0.9238 8.1298 2.8185 14.418 4.2278 3.137 0.7203 6.601 1.5345 10.377 2.4114 3.792 0.7672 7.927 1.19 12.312 1.879 8.801 1.0961 18.756 1.284 29.539 0.4697 10.751-1.237 22.314-3.3822 34.344-7.2341 12.031-3.852 24.577-8.6435 37.56-14.265 13.045-5.6527 26.527-11.509 40.227-17.444 13.717-5.8563 28.228-11.963 42.35-17.287l10.627-4.0712 11.422-3.6171c7.584-2.2548 14.98-5.0577 22.798-6.2634 15.339-3.5075 30.943-5.2299 46.126-5.3395 15.198 0 30.022 1.5189 43.707 4.7915 3.417 0.82989 6.804 1.6441 10.127 2.4584 3.324 0.84556 6.445 2.1452 9.597 3.1786 3.136 1.1118 6.21 2.1922 9.238 3.257 2.918 1.331 5.789 2.615 8.597 3.899 11.282 5.0263 20.941 11.008 29.243 16.645 53.897 36.594 63.977 89.676 63.977 89.676z" fill="#0D253D"></path>
  <path d="m291.7 499.86c-0.172-0.187-0.375-0.342-0.609-0.452-1.81-0.763-3.62-1.496-5.431-2.212l-134.91-415.99s-0.047-0.109-0.078-0.1714c-0.031-0.0779-0.062-0.1558-0.094-0.2337-0.062-0.1403-0.14-0.265-0.218-0.3896-0.031-0.0624-0.078-0.1247-0.109-0.187-0.125-0.1714-0.266-0.3428-0.406-0.4987-0.156-0.1714-0.328-0.3116-0.515-0.4363-0.062-0.0467-0.125-0.0779-0.172-0.1091-0.125-0.0779-0.265-0.1558-0.405-0.2181-0.078-0.0312-0.157-0.0624-0.235-0.0935-0.14-0.0468-0.28-0.0935-0.437-0.1403-0.078-0.0156-0.14-0.0468-0.218-0.0468-0.218-0.0467-0.453-0.0623-0.687-0.0623s-0.468 0.0312-0.686 0.0623c-0.078 0-0.141 0.0312-0.219 0.0468-0.156 0.0312-0.296 0.0779-0.437 0.1403-0.078 0.0311-0.156 0.0623-0.234 0.0935-0.14 0.0623-0.265 0.1402-0.406 0.2181-0.062 0.0312-0.124 0.0624-0.171 0.1091-0.188 0.1247-0.359 0.2649-0.515 0.4207-0.156 0.1559-0.281 0.3273-0.406 0.5143-0.047 0.0623-0.078 0.1246-0.109 0.187-0.078 0.1246-0.156 0.2649-0.219 0.3896-0.031 0.0779-0.062 0.1558-0.093 0.2337-0.016 0.0624-0.047 0.1091-0.078 0.1714l-134.96 416.07c-3.5893 1.278-5.5869 2.073-5.7429 2.151-0.24969 0.109-0.45257 0.265-0.63984 0.452h-2.2628c20.881 61.102 78.716 105.12 146.99 105.12 68.276 0 126.11-44.007 146.99-105.12h-2.263l-0.015-0.016zm-140.76-393.6 125.66 387.48c-43.29-15.801-86.643-21.022-125.66-20.772v-366.7zm-7.553 0v366.83c-56.649 1.387-103.26 13.901-125.83 21.178l125.83-388.01zm-134.58 394.96c15.247-5.516 67.901-22.751 134.58-24.388v50.132c-40.591-0.187-86.737-6.764-134.58-25.744zm142.15 25.697v-50.194c41.683-0.265 88.344 5.766 134.54 24.466-14.436 5.875-65.872 24.715-134.54 25.728z" fill="#0D253D"></path>
</svg>
