<?xml version="1.0" encoding="utf-8"?>
<svg version="1.1" viewBox="153.713 128.191 187.935 212.877" xmlns="http://www.w3.org/2000/svg">
  <path fill="#ccb886" d=" M 226.01 160.25 C 225.82 167.78 218.50 173.24 211.67 173.91 A 0.72 0.72 0.0 0 1 210.88 173.20 Q 210.82 165.89 210.91 158.49 Q 210.98 152.35 212.45 149.25 Q 215.85 142.11 224.80 140.84 A 1.25 1.25 0.0 0 1 226.22 142.07 Q 226.24 151.03 226.01 160.25 Z"/>
  <path fill="#ccb886" d=" M 250.67 198.05 C 241.62 197.25 233.43 191.19 230.35 182.99 Q 228.68 178.55 228.63 166.82 Q 228.57 154.44 228.64 142.07 A 1.09 1.09 0.0 0 1 229.73 140.99 L 250.82 141.00 Q 252.13 141.01 252.13 142.32 L 252.04 196.79 A 1.26 1.26 0.0 0 1 250.67 198.05 Z"/>
  <path fill="#ccb886" d=" M 270.54 157.74 C 270.30 166.47 264.43 173.31 255.62 174.11 A 0.61 0.60 -2.6 0 1 254.96 173.51 L 254.92 142.04 A 1.05 1.05 0.0 0 1 255.96 140.99 L 269.28 140.96 A 1.71 1.71 0.0 0 1 270.99 142.72 Q 270.73 150.77 270.54 157.74 Z"/>
  <path fill="#ccb886" d=" M 288.88 196.73 Q 278.27 192.37 274.80 182.49 Q 273.34 178.34 273.30 168.79 Q 273.25 155.54 273.08 142.25 A 1.17 1.17 0.0 0 1 274.27 141.07 C 287.22 141.30 296.53 151.60 296.66 164.75 Q 296.81 180.49 296.74 196.99 Q 296.74 197.89 295.84 197.95 Q 292.46 198.20 288.88 196.73 Z"/>
  <path fill="#ccb886" d=" M 277.13 233.88 L 255.79 233.81 Q 255.02 233.81 255.02 233.04 L 254.99 177.74 A 0.69 0.69 0.0 0 1 255.70 177.05 C 265.13 177.31 273.92 184.72 277.00 192.80 Q 278.58 196.93 278.68 205.87 Q 278.83 218.09 278.79 232.22 Q 278.79 233.88 277.13 233.88 Z"/>
  <path fill="#ccb886" d=" M 211.78 177.19 C 221.22 177.49 229.94 184.63 232.86 193.12 Q 234.22 197.11 234.13 207.56 Q 234.01 219.91 234.19 232.52 A 1.23 1.23 0.0 0 1 233.07 233.77 C 224.15 234.58 215.56 226.78 212.56 219.48 Q 211.15 216.03 211.02 210.32 Q 210.66 194.04 211.15 177.78 Q 211.17 177.17 211.78 177.19 Z"/>
  <path fill="#ccb886" d=" M 240.83 206.01 Q 244.75 201.55 251.49 201.06 A 0.46 0.45 87.6 0 1 251.97 201.51 L 252.00 232.84 A 1.09 1.09 0.0 0 1 250.91 233.93 L 237.03 233.86 Q 236.66 233.86 236.61 233.50 Q 235.39 224.70 236.78 216.09 Q 237.86 209.38 240.83 206.01 Z"/>
  <path fill="#ccb886" d=" M 291.94 201.92 Q 294.18 200.95 296.05 201.00 Q 296.63 201.01 296.66 201.59 Q 297.10 209.88 296.82 218.09 Q 296.64 223.17 295.05 226.07 Q 291.45 232.58 283.20 234.04 A 1.51 1.50 -8.4 0 1 281.43 232.73 Q 280.55 225.27 281.30 217.60 C 282.09 209.54 284.66 205.07 291.94 201.92 Z"/>
  <rect fill="#fefefd" x="-1.98" y="-1.95" transform="translate(172.03,250.01) rotate(-0.4)" width="3.96" height="3.90" rx="1.05"/>
  <rect fill="#fefefd" x="-2.01" y="-1.98" transform="translate(180.00,250.00) rotate(0.2)" width="4.02" height="3.96" rx="1.07"/>
  <rect fill="#fefefd" x="-2.02" y="-1.98" transform="translate(188.00,250.00) rotate(-1.4)" width="4.04" height="3.96" rx="1.03"/>
  <rect fill="#fefefd" x="-2.01" y="-1.98" transform="translate(195.99,250.00) rotate(1.6)" width="4.02" height="3.96" rx="1.04"/>
  <rect fill="#fefefd" x="-2.01" y="-1.98" transform="translate(203.99,250.00) rotate(-0.2)" width="4.02" height="3.96" rx="0.96"/>
  <rect fill="#fefefd" x="-2.00" y="-1.98" transform="translate(212.00,250.00) rotate(0.2)" width="4.00" height="3.96" rx="0.99"/>
  <rect fill="#fefefd" x="-1.99" y="-1.98" transform="translate(220.00,250.00) rotate(1.3)" width="3.98" height="3.96" rx="1.05"/>
  <rect fill="#fefefd" x="-1.98" y="-1.97" transform="translate(228.01,249.99) rotate(-0.1)" width="3.96" height="3.94" rx="0.93"/>
  <rect fill="#fefefd" x="-1.98" y="-1.98" transform="translate(236.01,249.99) rotate(1.2)" width="3.96" height="3.96" rx="0.89"/>
  <path fill="#fefefd" d=" M 242.49 248.00 L 245.50 248.02 A 0.49 0.49 0.0 0 1 245.99 248.51 L 246.00 250.71 A 0.49 0.49 0.0 0 1 245.56 251.20 L 242.57 251.51 A 0.49 0.49 0.0 0 1 242.02 251.03 L 242.00 248.50 A 0.49 0.49 0.0 0 1 242.49 248.00 Z"/>
  <rect fill="#fefefd" x="-1.98" y="-1.98" transform="translate(252.00,250.00) rotate(1.1)" width="3.96" height="3.96" rx="0.92"/>
  <rect fill="#fefefd" x="-1.99" y="-1.98" transform="translate(260.00,250.00) rotate(1.3)" width="3.98" height="3.96" rx="1.03"/>
  <rect fill="#fefefd" x="-1.99" y="-1.98" transform="translate(268.02,249.99) rotate(-1.6)" width="3.98" height="3.96" rx="0.84"/>
  <rect fill="#fefefd" x="-2.02" y="-2.00" transform="translate(276.00,250.01) rotate(0.3)" width="4.04" height="4.00" rx="0.47"/>
  <rect fill="#fefefd" x="-2.02" y="-2.01" transform="translate(284.00,250.02) rotate(0.1)" width="4.04" height="4.02" rx="0.44"/>
  <rect fill="#fefefd" x="-2.01" y="-2.00" transform="translate(291.99,250.00) rotate(-0.5)" width="4.02" height="4.00" rx="0.63"/>
  <rect fill="#fefefd" x="-2.00" y="-1.98" transform="translate(300.00,250.00) rotate(1.0)" width="4.00" height="3.96" rx="0.89"/>
  <rect fill="#fefefd" x="-2.02" y="-1.98" transform="translate(308.01,250.00) rotate(-0.1)" width="4.04" height="3.96" rx="1.04"/>
  <rect fill="#fefefd" x="-2.04" y="-1.97" transform="translate(316.02,250.00) rotate(0.4)" width="4.08" height="3.94" rx="1.08"/>
  <rect fill="#fefefd" x="-1.99" y="-1.96" transform="translate(323.99,250.02) rotate(0.8)" width="3.98" height="3.92" rx="1.07"/>
  <path fill="#fefefd" d=" M 206.16 286.54 C 206.44 284.07 206.88 280.20 204.83 278.39 Q 204.24 277.87 205.02 277.85 L 209.67 277.72 Q 210.30 277.70 210.32 278.33 C 210.41 282.38 211.38 285.09 207.37 287.60 C 197.88 293.55 185.06 288.92 184.85 276.75 C 184.63 264.37 197.24 259.71 207.26 263.95 A 0.93 0.91 -79.4 0 1 207.82 264.79 L 207.90 268.98 Q 207.92 269.93 207.38 269.15 C 206.58 268.00 205.90 266.79 204.91 265.91 C 198.82 260.50 189.83 262.94 188.83 271.51 C 188.00 278.54 191.07 286.90 198.22 289.24 Q 202.60 290.67 205.77 287.37 Q 206.11 287.02 206.16 286.54 Z"/>
  <path fill="#fefefd" d=" M 222.29 275.37 L 229.80 274.55 Q 230.47 274.48 230.86 273.93 L 231.93 272.47 A 0.44 0.44 0.0 0 1 232.73 272.73 L 232.67 278.00 Q 232.66 278.85 232.13 278.19 C 229.63 275.09 226.02 275.33 222.11 275.92 Q 221.62 275.99 221.62 276.49 L 221.60 287.99 A 1.41 1.41 0.0 0 0 223.05 289.40 C 227.70 289.26 233.09 290.09 235.23 284.64 A 0.29 0.28 56.1 0 1 235.78 284.75 L 235.76 289.43 Q 235.75 289.86 235.32 289.86 L 216.73 289.90 Q 216.17 289.90 216.49 289.44 L 217.08 288.57 Q 217.34 288.20 217.34 287.74 Q 217.43 277.99 217.34 268.25 Q 217.31 264.90 216.71 263.17 Q 216.53 262.67 217.07 262.67 L 234.13 262.58 Q 234.70 262.57 234.72 263.14 L 234.90 267.52 Q 234.95 268.65 234.35 267.69 C 231.40 262.93 227.28 262.76 222.18 263.34 Q 221.60 263.41 221.60 263.99 L 221.63 274.78 Q 221.64 275.44 222.29 275.37 Z"/>
  <path fill="#fefefd" d=" M 261.44 282.03 Q 261.51 276.00 261.54 269.50 Q 261.55 265.42 259.34 263.18 Q 258.83 262.67 259.55 262.66 L 263.04 262.61 Q 263.71 262.60 263.32 263.14 Q 262.10 264.91 262.12 267.88 Q 262.20 278.48 262.19 289.57 A 0.44 0.44 0.0 0 1 261.41 289.85 L 244.09 268.14 A 0.51 0.50 -65.6 0 0 243.19 268.48 Q 243.52 276.41 243.54 284.26 Q 243.55 287.69 245.64 289.53 Q 246.14 289.97 245.48 289.97 L 241.84 289.96 Q 241.17 289.95 241.55 289.40 L 242.33 288.29 A 0.85 0.77 -30.3 0 0 242.47 287.84 Q 242.53 277.66 242.76 267.50 Q 242.81 264.88 241.06 263.10 Q 240.60 262.63 241.26 262.63 L 244.48 262.60 A 1.03 1.03 0.0 0 1 245.28 262.98 L 260.75 282.27 Q 261.43 283.11 261.44 282.03 Z"/>
  <path fill="#fefefd" d=" M 289.56 264.59 L 288.47 263.47 Q 287.71 262.70 288.79 262.67 L 292.22 262.59 A 0.39 0.39 0.0 0 1 292.53 263.22 L 291.55 264.48 A 1.45 1.44 -26.4 0 0 291.25 265.36 C 291.28 270.95 292.18 280.88 290.19 285.32 C 286.93 292.58 275.33 291.57 271.56 285.43 Q 270.21 283.24 270.13 279.34 C 270.04 275.65 270.91 265.89 268.97 263.21 Q 268.53 262.60 269.29 262.60 L 274.73 262.63 Q 275.58 262.63 275.10 263.34 C 273.05 266.34 273.96 276.79 274.29 280.54 C 274.81 286.36 277.52 290.28 283.76 289.35 Q 288.91 288.59 290.09 283.11 Q 291.49 276.63 290.01 265.50 Q 289.94 264.97 289.56 264.59 Z"/>
  <path fill="#fefefd" d=" M 299.69 285.07 C 307.38 296.05 321.61 284.24 306.66 278.43 C 302.62 276.86 297.64 275.12 297.62 270.26 C 297.58 261.65 308.72 261.41 314.48 263.88 Q 315.05 264.13 315.05 264.74 L 315.03 268.01 Q 315.02 269.25 314.41 268.17 Q 311.03 262.23 305.03 262.98 C 301.13 263.46 299.14 267.86 301.89 270.90 C 304.32 273.57 309.94 274.89 312.77 276.49 C 316.83 278.77 317.31 283.39 314.45 286.84 C 310.42 291.71 302.65 290.85 297.73 287.90 Q 297.23 287.60 297.23 287.02 L 297.23 282.29 Q 297.23 281.68 297.59 282.17 Q 298.67 283.62 299.69 285.07 Z"/>
  <path fill="#fefefd" d=" M 197.66 311.39 C 195.17 314.31 199.37 319.34 203.43 315.89 A 0.27 0.27 0.0 0 1 203.85 316.20 Q 202.87 318.35 200.72 318.12 C 192.79 317.28 196.37 305.69 203.42 310.05 Q 203.86 310.32 203.87 310.70 A 0.34 0.34 0.0 0 1 203.33 310.99 Q 199.98 308.67 197.66 311.39 Z"/>
  <path fill="#fefefd" d=" M 215.45 313.58 A 4.49 4.49 0.0 0 1 210.96 318.07 A 4.49 4.49 0.0 0 1 206.47 313.58 A 4.49 4.49 0.0 0 1 210.96 309.09 A 4.49 4.49 0.0 0 1 215.45 313.58 Z M 211.0026 317.1900 A 3.60 3.40 89.8 0 0 214.3900 313.5781 A 3.60 3.40 89.8 0 0 210.9774 309.9900 A 3.60 3.40 89.8 0 0 207.5900 313.6019 A 3.60 3.40 89.8 0 0 211.0026 317.1900 Z"/>
  <path fill="#fefefd" d=" M 219.51 311.71 Q 219.88 314.61 219.55 317.53 A 0.57 0.57 0.0 0 1 218.42 317.46 L 218.51 309.61 A 0.53 0.52 -63.6 0 1 219.45 309.29 L 224.22 315.49 Q 224.54 315.90 224.61 315.38 Q 225.01 312.59 224.88 311.27 Q 224.77 310.16 225.22 309.54 A 0.34 0.34 0.0 0 1 225.84 309.74 L 225.89 317.00 A 0.78 0.77 -64.0 0 1 224.50 317.48 L 219.96 311.53 Q 219.39 310.80 219.51 311.71 Z"/>
  <path fill="#fefefd" d=" M 234.67 314.34 L 230.17 313.54 A 1.71 1.71 0.0 0 1 228.80 312.27 C 227.90 308.64 233.31 308.86 235.23 309.71 Q 236.11 310.11 236.12 310.88 Q 236.12 311.52 235.62 311.13 Q 233.35 309.39 230.57 310.45 A 1.16 1.15 42.2 0 0 230.68 312.64 C 232.69 313.20 237.43 312.71 236.59 316.19 Q 236.48 316.67 236.07 316.95 Q 232.77 319.23 229.37 317.15 Q 228.61 316.69 228.82 315.94 Q 228.96 315.40 229.35 315.80 Q 231.85 318.32 235.05 316.44 A 1.14 1.14 0.0 0 0 234.67 314.34 Z"/>
  <path fill="#fefefd" d=" M 241.37 316.31 C 247.11 319.88 246.72 312.38 246.76 309.54 A 0.45 0.44 -86.5 0 1 247.25 309.10 Q 247.57 309.14 247.60 309.51 C 247.87 312.68 248.56 316.85 245.29 317.80 C 239.03 319.63 239.16 313.28 239.62 309.45 A 0.42 0.41 -65.4 0 1 240.31 309.19 Q 240.41 309.28 240.52 309.36 Q 240.59 309.41 240.59 309.50 L 240.82 315.36 Q 240.84 315.98 241.37 316.31 Z"/>
  <path fill="#fefefd" d=" M 263.94 310.68 Q 263.53 314.12 263.87 316.25 Q 264.05 317.37 263.34 317.83 A 0.45 0.44 -16.6 0 1 262.65 317.46 L 262.60 310.90 Q 262.60 310.33 262.03 310.24 Q 261.05 310.09 259.75 310.05 Q 259.32 310.04 259.34 309.65 Q 259.38 309.20 259.83 309.20 L 266.95 309.20 A 0.44 0.44 0.0 0 1 266.97 310.08 L 264.48 310.18 Q 263.99 310.20 263.94 310.68 Z"/>
  <path fill="#fefefd" d=" M 278.21 313.56 A 4.49 4.49 0.0 0 1 273.72 318.05 A 4.49 4.49 0.0 0 1 269.23 313.56 A 4.49 4.49 0.0 0 1 273.72 309.07 A 4.49 4.49 0.0 0 1 278.21 313.56 Z M 277.29 313.60 A 3.52 3.52 0.0 0 0 273.77 310.08 A 3.52 3.52 0.0 0 0 270.25 313.60 A 3.52 3.52 0.0 0 0 273.77 317.12 A 3.52 3.52 0.0 0 0 277.29 313.60 Z"/>
  <path fill="#fefefd" d=" M 286.90 315.29 L 288.40 317.12 Q 288.85 317.67 288.16 317.84 Q 287.46 318.01 287.12 317.39 Q 285.73 314.87 283.18 314.91 Q 282.40 314.92 282.39 315.70 L 282.37 317.49 A 0.29 0.29 0.0 0 1 282.07 317.77 Q 281.91 317.77 281.76 317.77 Q 281.25 317.76 281.25 317.25 L 281.25 310.00 Q 281.25 309.47 281.76 309.35 Q 285.02 308.56 287.87 310.11 A 1.24 1.21 4.4 0 1 288.44 310.76 Q 289.52 313.61 287.06 314.66 Q 286.57 314.87 286.90 315.29 Z M 282.30 310.65 L 282.40 313.65 A 0.57 0.57 0.0 0 0 282.99 314.20 L 285.11 314.13 A 2.63 1.94 -1.9 0 0 287.67 312.10 L 287.66 311.84 A 2.63 1.94 -1.9 0 0 284.97 309.99 L 282.85 310.06 A 0.57 0.57 0.0 0 0 282.30 310.65 Z"/>
  <path fill="#fefefd" d=" M 301.79 315.89 Q 297.92 314.94 295.84 317.57 A 0.41 0.41 0.0 0 1 295.15 317.12 L 299.31 309.34 A 0.48 0.47 -44.6 0 1 300.15 309.34 L 304.28 317.46 A 0.37 0.37 0.0 0 1 303.66 317.86 L 302.52 316.37 Q 302.23 316.00 301.79 315.89 Z M 297.82 314.32 A 0.33 0.33 0.0 0 0 298.11 314.80 L 301.35 314.82 A 0.33 0.33 0.0 0 0 301.65 314.35 L 300.05 311.11 A 0.33 0.33 0.0 0 0 299.46 311.11 L 297.82 314.32 Z"/>
  <path fill="#fefefd" d=" M 252.63 317.06 L 257.68 317.13 A 0.20 0.20 0.0 0 1 257.88 317.33 L 257.88 317.71 A 0.20 0.20 0.0 0 1 257.68 317.91 L 251.32 317.87 A 0.20 0.20 0.0 0 1 251.12 317.67 L 251.32 309.43 A 0.20 0.20 0.0 0 1 251.52 309.24 L 252.16 309.26 A 0.20 0.20 0.0 0 1 252.35 309.46 L 252.43 316.86 A 0.20 0.20 0.0 0 0 252.63 317.06 Z"/>
  <rect fill="#fefefd" x="-0.58" y="-4.26" transform="translate(292.25,313.60) rotate(-0.1)" width="1.16" height="8.52" rx="0.56"/>
</svg>