<?xml version="1.0" encoding="UTF-8"?>
<svg xmlns="http://www.w3.org/2000/svg" fill="none" viewBox="0 0 17 16">
  <path d="m8.0025 3.8978c-2.2706 0-4.102 1.8315-4.102 4.1022 0 2.2707 1.8314 4.1022 4.102 4.1022 2.2705 0 4.102-1.8315 4.102-4.1022 0-2.2707-1.8315-4.1022-4.102-4.1022zm0 6.7692c-1.4673 0-2.6668-1.1961-2.6668-2.667s1.196-2.667 2.6668-2.667 2.6668 1.196 2.6668 2.667-1.1995 2.667-2.6668 2.667zm5.2266-6.937c0 0.53197-0.4285 0.95682-0.9568 0.95682-0.532 0-0.9568-0.42842-0.9568-0.95682 0-0.52839 0.4284-0.95682 0.9568-0.95682 0.5283 0 0.9568 0.42843 0.9568 0.95682zm2.7168 0.9711c-0.0607-1.2817-0.3535-2.417-1.2924-3.3524-0.9353-0.93541-2.0706-1.2282-3.3523-1.2924-1.3209-0.074975-5.2801-0.074975-6.601 0-1.2781 0.060694-2.4134 0.35345-3.3523 1.2889-0.93893 0.9354-1.2281 2.0707-1.2924 3.3524-0.074972 1.321-0.074972 5.2804 0 6.6014 0.060691 1.2817 0.35344 2.417 1.2924 3.3524 0.93893 0.9354 2.0706 1.2282 3.3523 1.2925 1.3209 0.0749 5.2801 0.0749 6.601 0 1.2817-0.0607 2.417-0.3535 3.3523-1.2925 0.9354-0.9354 1.2281-2.0707 1.2924-3.3524 0.0749-1.321 0.0749-5.2768 0-6.5978zm-1.7065 8.0152c-0.2785 0.6997-0.8176 1.2388-1.5209 1.5209-1.0531 0.4177-3.5522 0.3213-4.716 0.3213s-3.6665 0.0928-4.7161-0.3213c-0.69973-0.2785-1.2388-0.8176-1.5208-1.5209-0.4177-1.0532-0.32131-3.5524-0.32131-4.7163s-0.09282-3.6666 0.32131-4.7163c0.27846-0.69976 0.81755-1.2389 1.5208-1.5209 1.0532-0.41771 3.5522-0.32132 4.7161-0.32132s3.6664-0.09282 4.716 0.32132c0.6998 0.27848 1.2388 0.81759 1.5209 1.5209 0.4177 1.0532 0.3213 3.5524 0.3213 4.7163s0.0964 3.6666-0.3213 4.7163z" fill="#AD8405"></path>
</svg>
