<?xml version="1.0" encoding="UTF-8"?>
<svg xmlns="http://www.w3.org/2000/svg" fill="none" viewBox="0 0 17 16">
  <path d="m3.5833 16h-3.317v-10.682h3.317v10.682zm-1.6603-12.139c-1.0607 0-1.921-0.87857-1.921-1.9393 0-0.5095 0.20239-0.99813 0.56264-1.3584 0.36026-0.36027 0.84886-0.56267 1.3583-0.56267s0.99808 0.2024 1.3583 0.56267c0.36025 0.36027 0.56264 0.8489 0.56264 1.3584 0 1.0607-0.86067 1.9393-1.921 1.9393zm14.075 12.139h-3.3099v-5.2c0-1.2392-0.025-2.8285-1.7245-2.8285-1.7246 0-1.9889 1.3464-1.9889 2.7393v5.2892h-3.3134v-10.682h3.1813v1.4571h0.04643c0.44284-0.83928 1.5246-1.725 3.1384-1.725 3.357 0 3.9741 2.2107 3.9741 5.0822v5.8678h-0.0035z" fill="#AD8405"></path>
</svg>
