<?xml version="1.0" encoding="UTF-8"?>
<svg xmlns="http://www.w3.org/2000/svg" viewBox="0 0 1394 615">
  <path d="m1364 50.609-6.11-6.123 6.11-6.123-6.36-6.3633-6.11 6.123-6.13-6.123-6.36 6.3633 6.12 6.123-6.12 6.123 6.36 6.3633 6.13-6.123 6.11 6.123 6.36-6.3633z" fill="#AD8405"></path>
  <path d="m1332.3 460.08-5.94-5.948 5.94-5.948-6.19-6.181-5.94 5.948-5.95-5.948-6.18 6.181 5.95 5.948-5.95 5.948 6.18 6.181 5.95-5.947 5.94 5.947 6.19-6.181z" fill="#0D253D"></path>
  <path d="m175.26 487.08-5.947-5.948 5.947-5.948-6.187-6.181-5.947 5.948-5.947-5.948-6.181 6.181 5.947 5.948-5.947 5.948 6.181 6.181 5.947-5.947 5.947 5.947 6.187-6.181z" fill="#AD8405"></path>
  <path d="m771.4 18.13-7.335-4.1165 4.116-7.3351-7.63-4.2765-4.115 7.3351-7.335-4.1164-4.277 7.6234 7.334 4.1164-4.115 7.3352 7.623 4.2782 4.115-7.3352 7.335 4.1164 4.284-7.6251z" fill="#0D253D"></path>
  <path d="m548.49 589.47-5.453-5.461c-1.916-1.915-1.039-5.181 1.577-5.882l14.907-4c2.61-0.701 5.006 1.688 4.304 4.305l-1.999 7.454-2 7.454c-0.701 2.61-3.967 3.487-5.882 1.578l-5.454-5.454v6e-3z" fill="#AD8405"></path>
  <path d="m679.24 92.226-6.728-3.7811c-2.362-1.3257-2.402-4.7071-0.073-6.0902l6.634-3.9423 6.634-3.9422c2.323-1.3814 5.276 0.2706 5.309 2.9795l0.184 15.434c0.032 2.7026-2.875 4.4302-5.235 3.1108l-6.727-3.7749 2e-3 0.0062z" fill="#AD8405"></path>
  <path d="m106.49 608.47-5.453-5.461c-1.9156-1.915-1.0391-5.181 1.577-5.882l14.907-4c2.61-0.701 5.006 1.688 4.304 4.305l-1.999 7.454-2 7.454c-0.701 2.61-3.967 3.487-5.882 1.578l-5.454-5.454v6e-3z" fill="#0D253D"></path>
  <path d="m45.733 191.34-5.0251-5.026c-1.7595-1.759-0.9544-4.766 1.4478-5.415l6.8625-1.837 6.8625-1.838c2.4022-0.643 4.6031 1.558 3.9604 3.961l-1.8374 6.863-1.8373 6.863c-0.6428 2.403-3.6488 3.214-5.4147 1.448l-5.0252-5.025 0.0065 6e-3z" fill="#AD8405"></path>
  <path d="m800.01 587.51-5.025-5.026c-1.759-1.759-1.064-4.655 1.253-5.214l6.61-1.59 6.609-1.591c2.318-0.559 4.519 1.642 3.96 3.961l-1.59 6.61-1.591 6.61c-0.558 2.318-3.454 3.012-5.213 1.253l-5.026-5.026 0.013 0.013z" fill="#AD8405"></path>
  <path d="m25 76.993c-13.781 0-25-11.212-25-25 0-13.788 11.219-24.993 25-24.993s25 11.212 25 25-11.212 25-25 25v-0.0071zm0-43.681c-10.301 0-18.688 8.3804-18.688 18.688s8.3804 18.688 18.688 18.688 18.688-8.3804 18.688-18.688-8.3804-18.688-18.688-18.688z" fill="#AD8405"></path>
  <path d="m23.99 526.98c-12.673 0-22.99-10.311-22.99-22.992s10.31-22.992 22.99-22.992 22.99 10.311 22.99 22.992-10.31 22.992-22.99 22.992zm0-40.179c-9.4725 0-17.185 7.707-17.185 17.187s7.7066 17.187 17.185 17.187c9.479 0 17.186-7.707 17.186-17.187s-7.7065-17.187-17.186-17.187z" fill="#0D253D"></path>
  <path d="m1371 319.98c-12.67 0-22.99-10.311-22.99-22.992s10.31-22.992 22.99-22.992 22.99 10.311 22.99 22.992-10.31 22.992-22.99 22.992zm0-40.179c-9.47 0-17.19 7.707-17.19 17.187s7.71 17.187 17.19 17.187 17.19-7.707 17.19-17.187-7.71-17.187-17.19-17.187z" fill="#AD8405"></path>
</svg>
