<svg xmlns="http://www.w3.org/2000/svg" xmlns:xlink="http://www.w3.org/1999/xlink" width="40" zoomAndPan="magnify" viewBox="0 0 30 30.000001" height="40" preserveAspectRatio="xMidYMid meet" version="1.0"><defs><clipPath id="26950fed80"><path d="M 0.484375 21 L 8 21 L 8 29.03125 L 0.484375 29.03125 Z M 0.484375 21 " clip-rule="nonzero"/></clipPath><clipPath id="230c831c2e"><path d="M 22 10 L 29.515625 10 L 29.515625 19 L 22 19 Z M 22 10 " clip-rule="nonzero"/></clipPath><clipPath id="3a83104cb6"><path d="M 0.484375 9 L 6 9 L 6 21 L 0.484375 21 Z M 0.484375 9 " clip-rule="nonzero"/></clipPath></defs><path fill="#bfa575" d="M 15 11.707031 C 16.550781 11.707031 17.808594 12.96875 17.808594 14.515625 C 17.808594 16.066406 16.550781 17.324219 15 17.324219 C 13.449219 17.324219 12.191406 16.066406 12.191406 14.515625 C 12.191406 12.96875 13.449219 11.707031 15 11.707031 Z M 15 18.261719 C 17.066406 18.261719 18.746094 16.582031 18.746094 14.515625 C 18.746094 12.449219 17.066406 10.769531 15 10.769531 C 12.933594 10.769531 11.253906 12.449219 11.253906 14.515625 C 11.253906 16.582031 12.933594 18.261719 15 18.261719 " fill-opacity="1" fill-rule="nonzero"/><path fill="#bfa575" d="M 15 13.578125 C 15.515625 13.578125 15.9375 14 15.9375 14.515625 C 15.9375 15.03125 15.515625 15.453125 15 15.453125 C 14.484375 15.453125 14.0625 15.03125 14.0625 14.515625 C 14.0625 14 14.484375 13.578125 15 13.578125 Z M 15 16.390625 C 16.035156 16.390625 16.875 15.550781 16.875 14.515625 C 16.875 13.484375 16.035156 12.644531 15 12.644531 C 13.964844 12.644531 13.125 13.484375 13.125 14.515625 C 13.125 15.550781 13.964844 16.390625 15 16.390625 " fill-opacity="1" fill-rule="nonzero"/><path fill="#bfa575" d="M 9.847656 15.589844 L 9.847656 13.441406 L 10.5 13.214844 L 10.574219 12.996094 C 10.636719 12.820312 10.710938 12.636719 10.796875 12.460938 L 10.898438 12.257812 L 10.597656 11.632812 L 12.117188 10.113281 L 12.742188 10.414062 L 12.945312 10.316406 C 13.121094 10.226562 13.300781 10.152344 13.480469 10.089844 L 13.699219 10.015625 L 13.925781 9.367188 L 16.074219 9.367188 L 16.300781 10.015625 L 16.519531 10.089844 C 16.699219 10.152344 16.878906 10.226562 17.054688 10.316406 L 17.257812 10.414062 L 17.882812 10.113281 L 19.402344 11.632812 L 19.101562 12.257812 L 19.203125 12.460938 C 19.289062 12.636719 19.363281 12.820312 19.425781 12.996094 L 19.5 13.214844 L 20.152344 13.441406 L 20.152344 15.589844 L 19.5 15.820312 L 19.425781 16.035156 C 19.363281 16.214844 19.289062 16.394531 19.203125 16.570312 L 19.101562 16.773438 L 19.402344 17.398438 L 17.882812 18.917969 L 17.257812 18.617188 L 17.054688 18.71875 C 16.878906 18.804688 16.699219 18.878906 16.519531 18.941406 L 16.300781 19.015625 L 16.074219 19.667969 L 13.925781 19.667969 L 13.699219 19.015625 L 13.480469 18.941406 C 13.300781 18.878906 13.121094 18.804688 12.945312 18.71875 L 12.742188 18.617188 L 12.117188 18.917969 L 10.597656 17.398438 L 10.898438 16.773438 L 10.796875 16.570312 C 10.710938 16.394531 10.636719 16.214844 10.574219 16.035156 L 10.5 15.820312 Z M 11.921875 20.046875 L 12.742188 19.65625 C 12.8125 19.6875 12.890625 19.71875 12.960938 19.746094 L 13.265625 20.605469 L 16.734375 20.605469 L 17.039062 19.746094 C 17.109375 19.71875 17.1875 19.6875 17.257812 19.65625 L 18.078125 20.046875 L 20.53125 17.59375 L 20.140625 16.773438 C 20.171875 16.703125 20.203125 16.628906 20.230469 16.554688 L 21.085938 16.253906 L 21.085938 12.78125 L 20.230469 12.476562 C 20.203125 12.40625 20.171875 12.332031 20.140625 12.257812 L 20.53125 11.441406 L 18.078125 8.984375 L 17.257812 9.375 C 17.1875 9.34375 17.109375 9.3125 17.039062 9.285156 L 16.734375 8.429688 L 13.265625 8.429688 L 12.960938 9.285156 C 12.890625 9.3125 12.8125 9.34375 12.742188 9.375 L 11.921875 8.984375 L 9.46875 11.441406 L 9.859375 12.257812 C 9.828125 12.332031 9.796875 12.40625 9.769531 12.476562 L 8.914062 12.78125 L 8.914062 16.253906 L 9.769531 16.554688 C 9.796875 16.628906 9.828125 16.703125 9.859375 16.773438 L 9.46875 17.59375 L 11.921875 20.046875 " fill-opacity="1" fill-rule="nonzero"/><g clip-path="url(#26950fed80)"><path fill="#bfa575" d="M 7.039062 27.628906 C 7.039062 27.886719 6.828125 28.097656 6.570312 28.097656 L 1.886719 28.097656 C 1.628906 28.097656 1.421875 27.886719 1.421875 27.628906 L 1.421875 22.945312 C 1.421875 22.6875 1.628906 22.476562 1.886719 22.476562 L 6.570312 22.476562 C 6.828125 22.476562 7.039062 22.6875 7.039062 22.945312 Z M 6.570312 21.539062 L 1.886719 21.539062 C 1.113281 21.539062 0.484375 22.167969 0.484375 22.945312 L 0.484375 27.628906 C 0.484375 28.402344 1.113281 29.03125 1.886719 29.03125 L 6.570312 29.03125 C 7.347656 29.03125 7.976562 28.402344 7.976562 27.628906 L 7.976562 22.945312 C 7.976562 22.167969 7.347656 21.539062 6.570312 21.539062 " fill-opacity="1" fill-rule="nonzero"/></g><g clip-path="url(#230c831c2e)"><path fill="#bfa575" d="M 28.578125 16.859375 C 28.578125 17.117188 28.371094 17.324219 28.113281 17.324219 L 23.429688 17.324219 C 23.171875 17.324219 22.960938 17.117188 22.960938 16.859375 L 22.960938 12.175781 C 22.960938 11.917969 23.171875 11.707031 23.429688 11.707031 L 28.113281 11.707031 C 28.371094 11.707031 28.578125 11.917969 28.578125 12.175781 Z M 28.113281 10.769531 L 23.429688 10.769531 C 22.652344 10.769531 22.023438 11.398438 22.023438 12.175781 L 22.023438 16.859375 C 22.023438 17.632812 22.652344 18.261719 23.429688 18.261719 L 28.113281 18.261719 C 28.886719 18.261719 29.515625 17.632812 29.515625 16.859375 L 29.515625 12.175781 C 29.515625 11.398438 28.886719 10.769531 28.113281 10.769531 " fill-opacity="1" fill-rule="nonzero"/></g><path fill="#bfa575" d="M 4.230469 1.40625 C 4.230469 1.148438 4.441406 0.9375 4.699219 0.9375 L 9.378906 0.9375 C 9.640625 0.9375 9.847656 1.148438 9.847656 1.40625 L 9.847656 6.085938 C 9.847656 6.34375 9.640625 6.554688 9.378906 6.554688 L 4.699219 6.554688 C 4.441406 6.554688 4.230469 6.34375 4.230469 6.085938 Z M 4.699219 7.492188 L 9.378906 7.492188 C 10.15625 7.492188 10.785156 6.863281 10.785156 6.085938 L 10.785156 1.40625 C 10.785156 0.628906 10.15625 0 9.378906 0 L 4.699219 0 C 3.921875 0 3.292969 0.628906 3.292969 1.40625 L 3.292969 6.085938 C 3.292969 6.863281 3.921875 7.492188 4.699219 7.492188 " fill-opacity="1" fill-rule="nonzero"/><path fill="#bfa575" d="M 3.292969 26.027344 L 2.6875 25.421875 L 2.027344 26.085938 L 3.292969 27.351562 L 6.433594 24.210938 L 5.773438 23.550781 L 3.292969 26.027344 " fill-opacity="1" fill-rule="nonzero"/><path fill="#bfa575" d="M 9.242188 2.671875 L 8.582031 2.011719 L 6.101562 4.488281 L 5.496094 3.882812 L 4.835938 4.546875 L 6.101562 5.8125 L 9.242188 2.671875 " fill-opacity="1" fill-rule="nonzero"/><path fill="#bfa575" d="M 24.832031 15.257812 L 24.226562 14.652344 L 23.566406 15.316406 L 24.832031 16.582031 L 27.972656 13.441406 L 27.3125 12.78125 L 24.832031 15.257812 " fill-opacity="1" fill-rule="nonzero"/><path fill="#bfa575" d="M 21.910156 20.617188 L 22.136719 21.527344 L 24.796875 20.859375 C 22.648438 24.191406 18.988281 26.222656 15 26.222656 C 13.285156 26.222656 11.636719 25.859375 10.09375 25.148438 L 9.699219 25.996094 C 11.367188 26.769531 13.148438 27.160156 15 27.160156 C 19.242188 27.160156 23.136719 25.035156 25.472656 21.539062 L 25.773438 23.941406 L 26.703125 23.824219 L 26.167969 19.554688 L 21.910156 20.617188 " fill-opacity="1" fill-rule="nonzero"/><g clip-path="url(#3a83104cb6)"><path fill="#bfa575" d="M 5.621094 16.496094 L 4.710938 16.28125 L 4.140625 18.671875 C 3.582031 17.285156 3.292969 15.890625 3.292969 14.515625 C 3.292969 12.789062 3.660156 11.125 4.386719 9.570312 L 3.535156 9.175781 C 2.753906 10.851562 2.355469 12.652344 2.355469 14.515625 C 2.355469 16.007812 2.664062 17.511719 3.261719 19 L 1.179688 17.851562 L 0.726562 18.671875 L 4.59375 20.804688 L 5.621094 16.496094 " fill-opacity="1" fill-rule="nonzero"/></g><path fill="#bfa575" d="M 15.726562 3.824219 L 14.203125 2.808594 L 15 2.808594 C 19.378906 2.808594 23.359375 5.222656 25.386719 9.113281 L 26.21875 8.679688 C 24.03125 4.480469 19.730469 1.875 15 1.875 L 14.203125 1.875 L 15.726562 0.859375 L 15.207031 0.078125 L 11.816406 2.339844 L 15.207031 4.605469 L 15.726562 3.824219 " fill-opacity="1" fill-rule="nonzero"/></svg>