<svg xmlns="http://www.w3.org/2000/svg" xmlns:xlink="http://www.w3.org/1999/xlink" width="40" zoomAndPan="magnify" viewBox="0 0 30 30.000001" height="40" preserveAspectRatio="xMidYMid meet" version="1.0"><defs><clipPath id="f86719f6f4"><path d="M 0.484375 0 L 15 0 L 15 29 L 0.484375 29 Z M 0.484375 0 " clip-rule="nonzero"/></clipPath><clipPath id="cb3359ec5e"><path d="M 6 4 L 29.515625 4 L 29.515625 25 L 6 25 Z M 6 4 " clip-rule="nonzero"/></clipPath></defs><g clip-path="url(#f86719f6f4)"><path fill="#BFA575" d="M 0.964844 17.890625 L 3.378906 17.890625 C 3.625 18.734375 3.957031 19.535156 4.378906 20.304688 L 2.671875 22.015625 C 2.578125 22.109375 2.53125 22.222656 2.535156 22.359375 C 2.535156 22.488281 2.582031 22.605469 2.671875 22.699219 L 6.753906 26.792969 C 6.847656 26.890625 6.960938 26.9375 7.09375 26.9375 C 7.230469 26.9375 7.34375 26.890625 7.4375 26.792969 L 9.164062 25.085938 C 9.929688 25.511719 10.734375 25.84375 11.574219 26.089844 L 11.574219 28.5 C 11.574219 28.636719 11.621094 28.75 11.71875 28.84375 C 11.8125 28.9375 11.925781 28.984375 12.058594 28.984375 L 14.46875 28.984375 C 14.601562 28.984375 14.714844 28.9375 14.808594 28.84375 C 14.90625 28.75 14.953125 28.636719 14.953125 28.5 L 14.953125 24.160156 C 14.953125 24.03125 14.90625 23.921875 14.820312 23.828125 C 14.730469 23.734375 14.621094 23.6875 14.492188 23.679688 C 13.914062 23.648438 13.34375 23.558594 12.78125 23.417969 C 12.21875 23.277344 11.675781 23.085938 11.148438 22.839844 C 10.621094 22.597656 10.125 22.304688 9.652344 21.964844 C 9.183594 21.625 8.75 21.246094 8.351562 20.824219 C 7.953125 20.402344 7.597656 19.949219 7.285156 19.460938 C 6.972656 18.96875 6.707031 18.457031 6.496094 17.917969 C 6.28125 17.378906 6.117188 16.824219 6.007812 16.253906 C 5.898438 15.683594 5.84375 15.109375 5.84375 14.53125 C 5.84375 13.949219 5.898438 13.375 6.007812 12.804688 C 6.117188 12.238281 6.28125 11.683594 6.496094 11.144531 C 6.707031 10.605469 6.972656 10.089844 7.285156 9.601562 C 7.597656 9.113281 7.953125 8.65625 8.351562 8.234375 C 8.75 7.816406 9.183594 7.433594 9.652344 7.09375 C 10.125 6.757812 10.621094 6.464844 11.148438 6.21875 C 11.675781 5.976562 12.21875 5.785156 12.78125 5.640625 C 13.34375 5.5 13.914062 5.414062 14.492188 5.382812 C 14.628906 5.375 14.738281 5.324219 14.828125 5.222656 C 14.917969 5.121094 14.960938 5.003906 14.953125 4.871094 L 14.953125 0.53125 C 14.953125 0.398438 14.90625 0.285156 14.808594 0.191406 C 14.714844 0.09375 14.601562 0.046875 14.46875 0.046875 L 12.058594 0.046875 C 11.925781 0.046875 11.8125 0.09375 11.71875 0.191406 C 11.621094 0.285156 11.574219 0.398438 11.574219 0.53125 L 11.574219 2.941406 C 10.734375 3.1875 9.929688 3.523438 9.164062 3.945312 L 7.453125 2.238281 C 7.359375 2.144531 7.242188 2.097656 7.109375 2.097656 C 6.976562 2.101562 6.863281 2.144531 6.769531 2.238281 L 2.671875 6.316406 C 2.582031 6.414062 2.535156 6.527344 2.535156 6.660156 C 2.53125 6.792969 2.578125 6.90625 2.671875 7.003906 L 4.378906 8.730469 C 3.957031 9.496094 3.625 10.300781 3.378906 11.140625 L 0.964844 11.140625 C 0.832031 11.140625 0.71875 11.1875 0.625 11.28125 C 0.53125 11.375 0.484375 11.488281 0.484375 11.621094 L 0.484375 17.410156 C 0.484375 17.542969 0.53125 17.65625 0.625 17.75 C 0.71875 17.84375 0.832031 17.890625 0.964844 17.890625 Z M 1.449219 12.105469 L 3.742188 12.105469 C 3.855469 12.109375 3.957031 12.078125 4.046875 12.007812 C 4.140625 11.941406 4.199219 11.851562 4.226562 11.742188 C 4.488281 10.734375 4.882812 9.785156 5.414062 8.886719 C 5.53125 8.664062 5.496094 8.46875 5.304688 8.300781 L 3.695312 6.675781 L 7.109375 3.261719 L 8.734375 4.871094 C 8.914062 5.046875 9.109375 5.070312 9.324219 4.941406 C 10.21875 4.414062 11.171875 4.015625 12.179688 3.757812 C 12.289062 3.730469 12.375 3.667969 12.445312 3.578125 C 12.511719 3.488281 12.542969 3.386719 12.539062 3.273438 L 12.539062 1.011719 L 13.988281 1.011719 L 13.988281 4.4375 C 13.367188 4.496094 12.757812 4.613281 12.160156 4.789062 C 11.558594 4.960938 10.980469 5.1875 10.425781 5.46875 C 9.867188 5.75 9.339844 6.078125 8.84375 6.453125 C 8.347656 6.832031 7.890625 7.25 7.472656 7.710938 C 7.054688 8.175781 6.679688 8.671875 6.351562 9.203125 C 6.027344 9.730469 5.75 10.289062 5.527344 10.871094 C 5.300781 11.453125 5.132812 12.050781 5.019531 12.660156 C 4.902344 13.273438 4.847656 13.894531 4.847656 14.515625 C 4.847656 15.140625 4.902344 15.757812 5.019531 16.371094 C 5.132812 16.984375 5.300781 17.582031 5.527344 18.164062 C 5.75 18.742188 6.027344 19.300781 6.351562 19.832031 C 6.679688 20.363281 7.054688 20.859375 7.472656 21.320312 C 7.890625 21.78125 8.347656 22.199219 8.84375 22.578125 C 9.339844 22.957031 9.867188 23.285156 10.425781 23.5625 C 10.980469 23.84375 11.558594 24.070312 12.160156 24.246094 C 12.757812 24.417969 13.367188 24.535156 13.988281 24.59375 L 13.988281 28.019531 L 12.539062 28.019531 L 12.539062 25.722656 C 12.542969 25.609375 12.511719 25.507812 12.445312 25.417969 C 12.375 25.328125 12.289062 25.269531 12.179688 25.242188 C 11.171875 24.980469 10.21875 24.585938 9.324219 24.054688 C 9.109375 23.925781 8.914062 23.949219 8.734375 24.128906 L 7.109375 25.757812 L 3.695312 22.359375 L 5.304688 20.734375 C 5.484375 20.554688 5.507812 20.359375 5.378906 20.144531 C 4.847656 19.25 4.453125 18.296875 4.191406 17.289062 C 4.164062 17.179688 4.105469 17.089844 4.015625 17.023438 C 3.925781 16.957031 3.824219 16.925781 3.710938 16.925781 L 1.449219 16.925781 Z M 1.449219 12.105469 " fill-opacity="1" fill-rule="nonzero"/></g><path fill="#BFA575" d="M 2.414062 14.035156 L 3.859375 14.035156 L 3.859375 15 L 2.414062 15 Z M 2.414062 14.035156 " fill-opacity="1" fill-rule="nonzero"/><path fill="#BFA575" d="M 5.742188 23.035156 L 6.765625 22.011719 L 7.449219 22.695312 L 6.425781 23.71875 Z M 5.742188 23.035156 " fill-opacity="1" fill-rule="nonzero"/><path fill="#BFA575" d="M 5.746094 5.992188 L 6.429688 5.3125 L 7.453125 6.332031 L 6.769531 7.015625 Z M 5.746094 5.992188 " fill-opacity="1" fill-rule="nonzero"/><g clip-path="url(#cb3359ec5e)"><path fill="#BFA575" d="M 27.492188 12.585938 C 27.050781 12.589844 26.660156 12.722656 26.3125 12.992188 C 25.964844 13.261719 25.738281 13.609375 25.628906 14.035156 L 23.148438 14.035156 C 23.089844 13.023438 22.851562 12.0625 22.4375 11.140625 L 24.113281 11.140625 C 24.3125 11.140625 24.457031 11.050781 24.542969 10.875 L 24.894531 10.175781 L 26.128906 10.175781 C 26.207031 10.390625 26.328125 10.578125 26.492188 10.738281 C 26.660156 10.898438 26.851562 11.011719 27.070312 11.078125 C 27.289062 11.144531 27.511719 11.160156 27.738281 11.121094 C 27.964844 11.082031 28.171875 10.992188 28.355469 10.855469 C 28.539062 10.71875 28.683594 10.550781 28.785156 10.34375 C 28.890625 10.140625 28.941406 9.921875 28.941406 9.695312 C 28.941406 9.464844 28.890625 9.246094 28.785156 9.042969 C 28.683594 8.835938 28.539062 8.667969 28.355469 8.53125 C 28.171875 8.394531 27.964844 8.304688 27.738281 8.265625 C 27.511719 8.230469 27.289062 8.242188 27.070312 8.308594 C 26.851562 8.378906 26.660156 8.488281 26.492188 8.648438 C 26.328125 8.808594 26.207031 8.996094 26.128906 9.210938 L 24.597656 9.210938 C 24.398438 9.210938 24.257812 9.300781 24.167969 9.476562 L 23.816406 10.175781 L 21.886719 10.175781 C 21.429688 9.445312 20.871094 8.800781 20.214844 8.246094 L 22.1875 8.246094 C 22.429688 8.257812 22.589844 8.148438 22.667969 7.917969 L 23.015625 6.800781 L 23.71875 6.800781 C 23.796875 7.015625 23.917969 7.203125 24.082031 7.363281 C 24.25 7.519531 24.441406 7.632812 24.660156 7.699219 C 24.878906 7.769531 25.101562 7.78125 25.328125 7.742188 C 25.554688 7.703125 25.757812 7.617188 25.945312 7.480469 C 26.128906 7.34375 26.273438 7.171875 26.375 6.96875 C 26.480469 6.765625 26.53125 6.546875 26.53125 6.316406 C 26.53125 6.089844 26.480469 5.871094 26.375 5.667969 C 26.273438 5.460938 26.128906 5.289062 25.945312 5.15625 C 25.757812 5.019531 25.554688 4.929688 25.328125 4.890625 C 25.101562 4.851562 24.878906 4.867188 24.660156 4.933594 C 24.441406 5 24.25 5.113281 24.082031 5.273438 C 23.917969 5.433594 23.796875 5.617188 23.71875 5.835938 L 22.667969 5.835938 C 22.425781 5.824219 22.261719 5.933594 22.1875 6.164062 L 21.839844 7.28125 L 18.808594 7.28125 C 18.5 7.117188 18.179688 6.972656 17.847656 6.847656 C 17.519531 6.722656 17.183594 6.621094 16.839844 6.539062 C 16.496094 6.457031 16.148438 6.398438 15.800781 6.363281 C 15.449219 6.324219 15.097656 6.3125 14.746094 6.320312 C 14.394531 6.328125 14.042969 6.359375 13.695312 6.414062 C 13.34375 6.46875 13.003906 6.546875 12.664062 6.644531 C 12.324219 6.742188 11.996094 6.863281 11.671875 7.003906 C 11.347656 7.144531 11.035156 7.304688 10.734375 7.484375 C 10.429688 7.667969 10.140625 7.867188 9.867188 8.085938 C 9.589844 8.304688 9.328125 8.539062 9.082031 8.792969 C 8.835938 9.042969 8.605469 9.3125 8.394531 9.59375 C 8.183594 9.875 7.992188 10.171875 7.816406 10.476562 C 7.644531 10.785156 7.492188 11.101562 7.359375 11.425781 C 7.226562 11.753906 7.113281 12.085938 7.023438 12.425781 C 6.933594 12.769531 6.867188 13.113281 6.820312 13.464844 C 6.777344 13.8125 6.753906 14.164062 6.753906 14.515625 C 6.753906 14.867188 6.777344 15.21875 6.820312 15.570312 C 6.867188 15.917969 6.933594 16.265625 7.023438 16.605469 C 7.113281 16.945312 7.226562 17.277344 7.359375 17.605469 C 7.492188 17.933594 7.644531 18.25 7.816406 18.554688 C 7.992188 18.863281 8.183594 19.15625 8.394531 19.4375 C 8.605469 19.71875 8.835938 19.988281 9.082031 20.238281 C 9.328125 20.492188 9.589844 20.726562 9.867188 20.945312 C 10.140625 21.164062 10.429688 21.363281 10.734375 21.546875 C 11.035156 21.726562 11.347656 21.890625 11.671875 22.03125 C 11.996094 22.171875 12.324219 22.289062 12.664062 22.390625 C 13.003906 22.488281 13.34375 22.5625 13.695312 22.617188 C 14.042969 22.671875 14.394531 22.703125 14.746094 22.710938 C 15.097656 22.722656 15.449219 22.707031 15.800781 22.671875 C 16.148438 22.632812 16.496094 22.574219 16.839844 22.496094 C 17.183594 22.414062 17.519531 22.308594 17.847656 22.1875 C 18.179688 22.0625 18.5 21.914062 18.808594 21.75 L 21.847656 21.75 L 22.21875 22.867188 C 22.292969 23.082031 22.441406 23.191406 22.667969 23.195312 L 23.71875 23.195312 C 23.796875 23.414062 23.917969 23.601562 24.082031 23.757812 C 24.25 23.917969 24.441406 24.03125 24.660156 24.097656 C 24.878906 24.164062 25.101562 24.179688 25.328125 24.140625 C 25.554688 24.101562 25.757812 24.015625 25.945312 23.878906 C 26.128906 23.742188 26.273438 23.570312 26.375 23.367188 C 26.480469 23.160156 26.53125 22.945312 26.53125 22.714844 C 26.53125 22.484375 26.480469 22.269531 26.375 22.0625 C 26.273438 21.859375 26.128906 21.6875 25.945312 21.550781 C 25.757812 21.414062 25.554688 21.328125 25.328125 21.289062 C 25.101562 21.25 24.878906 21.265625 24.660156 21.332031 C 24.441406 21.398438 24.25 21.511719 24.082031 21.667969 C 23.917969 21.828125 23.796875 22.015625 23.71875 22.230469 L 23.015625 22.230469 L 22.667969 21.113281 C 22.589844 20.882812 22.429688 20.773438 22.1875 20.785156 L 20.222656 20.785156 C 20.882812 20.230469 21.441406 19.585938 21.894531 18.855469 L 23.824219 18.855469 L 24.175781 19.554688 C 24.265625 19.726562 24.402344 19.816406 24.597656 19.820312 L 26.128906 19.820312 C 26.207031 20.039062 26.328125 20.226562 26.492188 20.382812 C 26.660156 20.542969 26.851562 20.65625 27.070312 20.722656 C 27.289062 20.789062 27.511719 20.804688 27.738281 20.765625 C 27.964844 20.726562 28.171875 20.636719 28.355469 20.5 C 28.539062 20.367188 28.683594 20.195312 28.785156 19.988281 C 28.890625 19.785156 28.941406 19.566406 28.941406 19.339844 C 28.941406 19.109375 28.890625 18.890625 28.785156 18.6875 C 28.683594 18.484375 28.539062 18.3125 28.355469 18.175781 C 28.171875 18.039062 27.964844 17.953125 27.738281 17.914062 C 27.511719 17.875 27.289062 17.886719 27.070312 17.957031 C 26.851562 18.023438 26.660156 18.136719 26.492188 18.292969 C 26.328125 18.453125 26.207031 18.640625 26.128906 18.855469 L 24.894531 18.855469 L 24.542969 18.15625 C 24.457031 17.980469 24.3125 17.890625 24.113281 17.890625 L 22.414062 17.890625 C 22.835938 16.972656 23.082031 16.007812 23.148438 15 L 25.652344 15 C 25.714844 15.234375 25.816406 15.449219 25.957031 15.644531 C 26.097656 15.84375 26.273438 16.007812 26.476562 16.136719 C 26.679688 16.269531 26.902344 16.359375 27.140625 16.40625 C 27.378906 16.453125 27.617188 16.457031 27.855469 16.414062 C 28.09375 16.375 28.316406 16.289062 28.523438 16.164062 C 28.730469 16.039062 28.910156 15.878906 29.054688 15.683594 C 29.203125 15.492188 29.308594 15.277344 29.375 15.046875 C 29.441406 14.8125 29.464844 14.574219 29.441406 14.332031 C 29.417969 14.09375 29.351562 13.863281 29.242188 13.644531 C 29.132812 13.429688 28.988281 13.242188 28.808594 13.078125 C 28.625 12.917969 28.421875 12.792969 28.195312 12.707031 C 27.96875 12.625 27.734375 12.582031 27.492188 12.585938 Z M 27.492188 9.210938 C 27.625 9.210938 27.738281 9.257812 27.832031 9.351562 C 27.925781 9.445312 27.972656 9.558594 27.972656 9.695312 C 27.972656 9.828125 27.925781 9.941406 27.832031 10.035156 C 27.738281 10.128906 27.625 10.175781 27.492188 10.175781 C 27.359375 10.175781 27.242188 10.128906 27.148438 10.035156 C 27.054688 9.941406 27.007812 9.828125 27.007812 9.695312 C 27.007812 9.558594 27.054688 9.445312 27.148438 9.351562 C 27.242188 9.257812 27.359375 9.210938 27.492188 9.210938 Z M 25.078125 5.835938 C 25.210938 5.835938 25.324219 5.882812 25.421875 5.976562 C 25.515625 6.070312 25.5625 6.183594 25.5625 6.316406 C 25.5625 6.449219 25.515625 6.566406 25.421875 6.660156 C 25.324219 6.753906 25.210938 6.800781 25.078125 6.800781 C 24.945312 6.800781 24.832031 6.753906 24.738281 6.660156 C 24.644531 6.566406 24.597656 6.449219 24.597656 6.316406 C 24.597656 6.183594 24.644531 6.070312 24.738281 5.976562 C 24.832031 5.882812 24.945312 5.835938 25.078125 5.835938 Z M 25.078125 22.230469 C 25.210938 22.230469 25.324219 22.28125 25.421875 22.375 C 25.515625 22.46875 25.5625 22.582031 25.5625 22.714844 C 25.5625 22.847656 25.515625 22.960938 25.421875 23.054688 C 25.324219 23.148438 25.210938 23.195312 25.078125 23.195312 C 24.945312 23.195312 24.832031 23.148438 24.738281 23.054688 C 24.644531 22.960938 24.597656 22.847656 24.597656 22.714844 C 24.597656 22.582031 24.644531 22.46875 24.738281 22.375 C 24.832031 22.28125 24.945312 22.230469 25.078125 22.230469 Z M 27.492188 18.855469 C 27.625 18.855469 27.738281 18.902344 27.832031 18.996094 C 27.925781 19.09375 27.972656 19.207031 27.972656 19.339844 C 27.972656 19.472656 27.925781 19.585938 27.832031 19.679688 C 27.738281 19.773438 27.625 19.820312 27.492188 19.820312 C 27.359375 19.820312 27.242188 19.773438 27.148438 19.679688 C 27.054688 19.585938 27.007812 19.472656 27.007812 19.339844 C 27.007812 19.207031 27.054688 19.09375 27.148438 18.996094 C 27.242188 18.902344 27.359375 18.855469 27.492188 18.855469 Z M 20.738281 10.175781 L 18.234375 10.175781 C 17.992188 9.242188 17.59375 8.382812 17.039062 7.589844 C 18.554688 8.050781 19.789062 8.910156 20.738281 10.175781 Z M 12.058594 14.035156 C 12.082031 13.058594 12.195312 12.09375 12.40625 11.140625 L 17.488281 11.140625 C 17.699219 12.09375 17.820312 13.058594 17.84375 14.035156 Z M 17.84375 15 C 17.824219 15.972656 17.707031 16.9375 17.5 17.890625 L 12.414062 17.890625 C 12.203125 16.9375 12.082031 15.972656 12.058594 15 Z M 14.953125 7.28125 C 15.78125 7.28125 16.664062 8.371094 17.234375 10.175781 L 12.671875 10.175781 C 13.238281 8.371094 14.121094 7.28125 14.953125 7.28125 Z M 12.863281 7.589844 C 12.3125 8.382812 11.914062 9.242188 11.667969 10.175781 L 9.164062 10.175781 C 10.117188 8.910156 11.347656 8.050781 12.863281 7.589844 Z M 8.558594 11.140625 L 11.449219 11.140625 C 11.246094 12.09375 11.128906 13.058594 11.09375 14.035156 L 7.71875 14.035156 C 7.789062 13.007812 8.070312 12.042969 8.558594 11.140625 Z M 8.558594 17.890625 C 8.078125 16.984375 7.808594 16.019531 7.742188 15 L 11.117188 15 C 11.140625 15.972656 11.25 16.9375 11.441406 17.890625 Z M 9.164062 18.855469 L 11.652344 18.855469 C 11.898438 19.789062 12.296875 20.652344 12.847656 21.441406 C 11.339844 20.980469 10.113281 20.117188 9.164062 18.855469 Z M 14.953125 21.75 C 14.121094 21.75 13.238281 20.660156 12.671875 18.855469 L 17.234375 18.855469 C 16.664062 20.660156 15.78125 21.75 14.953125 21.75 Z M 17.039062 21.441406 C 17.59375 20.652344 17.992188 19.789062 18.234375 18.855469 L 20.738281 18.855469 C 19.789062 20.121094 18.554688 20.984375 17.039062 21.441406 Z M 21.347656 17.890625 L 18.476562 17.890625 C 18.671875 16.9375 18.785156 15.972656 18.808594 15 L 22.1875 15 C 22.113281 16.023438 21.832031 16.988281 21.347656 17.890625 Z M 18.808594 14.035156 C 18.785156 13.058594 18.679688 12.09375 18.488281 11.140625 L 21.355469 11.140625 C 21.839844 12.046875 22.117188 13.011719 22.1875 14.035156 Z M 27.492188 15.480469 C 27.363281 15.480469 27.238281 15.457031 27.121094 15.40625 C 27.003906 15.359375 26.898438 15.289062 26.808594 15.199219 C 26.71875 15.109375 26.648438 15.003906 26.597656 14.886719 C 26.550781 14.765625 26.527344 14.644531 26.527344 14.515625 C 26.527344 14.386719 26.550781 14.265625 26.597656 14.148438 C 26.648438 14.027344 26.71875 13.925781 26.808594 13.835938 C 26.898438 13.742188 27.003906 13.675781 27.121094 13.625 C 27.238281 13.574219 27.363281 13.550781 27.492188 13.550781 C 27.617188 13.550781 27.742188 13.574219 27.859375 13.625 C 27.976562 13.675781 28.082031 13.742188 28.171875 13.835938 C 28.261719 13.925781 28.332031 14.027344 28.382812 14.148438 C 28.429688 14.265625 28.457031 14.386719 28.457031 14.515625 C 28.457031 14.644531 28.429688 14.765625 28.382812 14.886719 C 28.332031 15.003906 28.261719 15.109375 28.171875 15.199219 C 28.082031 15.289062 27.976562 15.359375 27.859375 15.40625 C 27.742188 15.457031 27.617188 15.480469 27.492188 15.480469 Z M 27.492188 15.480469 " fill-opacity="1" fill-rule="nonzero"/></g></svg>