<svg xmlns="http://www.w3.org/2000/svg" xmlns:xlink="http://www.w3.org/1999/xlink" width="40" zoomAndPan="magnify" viewBox="0 0 30 30.000001" height="40" preserveAspectRatio="xMidYMid meet" version="1.0"><defs><clipPath id="25a6d3e970"><path d="M 0.484375 0 L 29.515625 0 L 29.515625 29 L 0.484375 29 Z M 0.484375 0 " clip-rule="nonzero"/></clipPath></defs><g clip-path="url(#25a6d3e970)"><path fill="#bfa575" d="M 3.328125 15.425781 L 3.328125 16.3125 C 3.328125 16.511719 3.101562 16.632812 2.9375 16.503906 L 0.605469 14.703125 C 0.480469 14.609375 0.480469 14.417969 0.605469 14.320312 L 2.9375 12.519531 C 3.101562 12.394531 3.328125 12.515625 3.328125 12.710938 L 3.328125 13.601562 L 6.539062 13.601562 C 6.714844 13.601562 6.855469 13.746094 6.855469 13.917969 L 6.855469 15.105469 C 6.855469 15.28125 6.714844 15.425781 6.539062 15.425781 Z M 10.578125 13.527344 C 10.382812 13.527344 10.1875 13.5 10.007812 13.441406 L 10.007812 19.234375 L 11.679688 19.234375 L 11.679688 15.433594 C 11.679688 15.304688 11.785156 15.199219 11.914062 15.199219 L 13.960938 15.199219 C 14.09375 15.199219 14.195312 15.304688 14.195312 15.433594 L 14.195312 19.234375 L 19.988281 19.234375 L 19.988281 13.441406 C 19.804688 13.5 19.613281 13.527344 19.414062 13.527344 C 18.847656 13.527344 18.3125 13.28125 17.941406 12.851562 C 17.574219 13.28125 17.039062 13.527344 16.46875 13.527344 C 15.898438 13.527344 15.363281 13.277344 14.996094 12.839844 C 14.628906 13.277344 14.097656 13.527344 13.523438 13.527344 C 12.957031 13.527344 12.421875 13.28125 12.050781 12.851562 C 11.683594 13.28125 11.148438 13.527344 10.578125 13.527344 Z M 15.644531 14.097656 L 18.589844 14.097656 C 18.71875 14.097656 18.824219 14.203125 18.824219 14.332031 L 18.824219 15.476562 C 18.824219 15.605469 18.71875 15.710938 18.589844 15.710938 L 15.644531 15.710938 C 15.515625 15.710938 15.410156 15.605469 15.410156 15.476562 L 15.410156 14.332031 C 15.410156 14.203125 15.515625 14.097656 15.644531 14.097656 Z M 11.695312 11.058594 L 12.21875 8.839844 L 11.28125 8.839844 L 9.941406 11.058594 Z M 13.183594 8.835938 L 12.65625 11.058594 L 14.53125 11.058594 L 14.53125 8.832031 Z M 15.464844 8.832031 L 15.464844 11.058594 L 17.335938 11.058594 L 16.808594 8.828125 Z M 17.773438 8.824219 L 18.300781 11.058594 L 20.058594 11.058594 L 18.714844 8.824219 Z M 20.320312 11.996094 L 18.5 11.996094 C 18.660156 12.355469 19.019531 12.589844 19.414062 12.589844 C 19.8125 12.589844 20.160156 12.355469 20.320312 11.996094 Z M 17.382812 11.996094 L 15.5625 11.996094 C 15.726562 12.355469 16.070312 12.589844 16.46875 12.589844 C 16.863281 12.589844 17.222656 12.355469 17.382812 11.996094 Z M 14.429688 11.996094 L 12.609375 11.996094 C 12.773438 12.355469 13.128906 12.589844 13.523438 12.589844 C 13.921875 12.589844 14.269531 12.355469 14.429688 11.996094 Z M 11.496094 11.996094 L 9.671875 11.996094 C 9.832031 12.359375 10.179688 12.589844 10.578125 12.589844 C 10.976562 12.589844 11.332031 12.355469 11.496094 11.996094 Z M 6.101562 6.90625 L 5.472656 7.535156 C 5.332031 7.675781 5.085938 7.601562 5.0625 7.394531 L 4.6875 4.472656 C 4.667969 4.316406 4.800781 4.183594 4.957031 4.203125 L 7.878906 4.578125 C 8.082031 4.601562 8.160156 4.847656 8.019531 4.988281 L 7.390625 5.617188 L 9.660156 7.890625 C 9.785156 8.011719 9.785156 8.214844 9.660156 8.335938 L 8.820312 9.175781 C 8.699219 9.300781 8.496094 9.300781 8.371094 9.175781 Z M 14.085938 2.84375 L 13.195312 2.84375 C 13 2.84375 12.878906 2.617188 13.003906 2.453125 L 14.804688 0.125 C 14.902344 -0.00390625 15.089844 -0.00390625 15.1875 0.125 L 16.988281 2.453125 C 17.117188 2.617188 16.996094 2.84375 16.796875 2.84375 L 15.90625 2.84375 L 15.90625 6.054688 C 15.90625 6.230469 15.765625 6.371094 15.589844 6.371094 L 14.402344 6.371094 C 14.230469 6.371094 14.085938 6.230469 14.085938 6.054688 Z M 22.605469 5.617188 L 21.976562 4.988281 C 21.835938 4.847656 21.910156 4.601562 22.113281 4.578125 L 25.035156 4.203125 C 25.195312 4.183594 25.328125 4.316406 25.308594 4.472656 L 24.933594 7.394531 C 24.90625 7.601562 24.660156 7.675781 24.523438 7.535156 L 23.890625 6.90625 L 21.621094 9.175781 C 21.5 9.300781 21.296875 9.300781 21.171875 9.175781 L 20.332031 8.335938 C 20.210938 8.214844 20.210938 8.011719 20.332031 7.890625 Z M 26.667969 13.601562 L 26.667969 12.710938 C 26.664062 12.515625 26.894531 12.394531 27.054688 12.519531 L 29.386719 14.320312 C 29.511719 14.417969 29.511719 14.609375 29.386719 14.703125 L 27.054688 16.507812 C 26.894531 16.632812 26.664062 16.511719 26.667969 16.3125 L 26.667969 15.425781 L 23.453125 15.425781 C 23.28125 15.425781 23.136719 15.28125 23.136719 15.105469 L 23.136719 13.917969 C 23.136719 13.746094 23.28125 13.601562 23.453125 13.601562 Z M 23.890625 22.121094 L 24.523438 21.492188 C 24.660156 21.351562 24.90625 21.425781 24.933594 21.632812 L 25.308594 24.554688 C 25.328125 24.710938 25.195312 24.84375 25.035156 24.824219 L 22.113281 24.449219 C 21.910156 24.421875 21.835938 24.175781 21.976562 24.039062 L 22.605469 23.410156 L 20.332031 21.136719 C 20.210938 21.015625 20.210938 20.8125 20.332031 20.6875 L 21.171875 19.847656 C 21.296875 19.726562 21.5 19.726562 21.621094 19.847656 Z M 15.90625 26.183594 L 16.796875 26.183594 C 16.996094 26.183594 17.117188 26.410156 16.988281 26.570312 L 15.1875 28.902344 C 15.089844 29.027344 14.902344 29.027344 14.804688 28.902344 L 13.003906 26.570312 C 12.878906 26.410156 13 26.183594 13.195312 26.183594 L 14.085938 26.183594 L 14.085938 22.972656 C 14.085938 22.796875 14.230469 22.652344 14.402344 22.652344 L 15.589844 22.652344 C 15.765625 22.652344 15.90625 22.796875 15.90625 22.972656 Z M 7.390625 23.410156 L 8.019531 24.039062 C 8.160156 24.175781 8.082031 24.421875 7.878906 24.449219 L 4.957031 24.824219 C 4.800781 24.84375 4.667969 24.710938 4.6875 24.554688 L 5.0625 21.632812 C 5.085938 21.425781 5.332031 21.351562 5.472656 21.492188 L 6.101562 22.121094 L 8.371094 19.847656 C 8.496094 19.726562 8.699219 19.726562 8.820312 19.847656 L 9.660156 20.691406 C 9.785156 20.8125 9.785156 21.015625 9.660156 21.136719 Z M 7.390625 23.410156 " fill-opacity="1" fill-rule="evenodd"/></g></svg>