<svg xmlns="http://www.w3.org/2000/svg" xmlns:xlink="http://www.w3.org/1999/xlink" width="40" zoomAndPan="magnify" viewBox="0 0 30 30.000001" height="40" preserveAspectRatio="xMidYMid meet" version="1.0"><defs><clipPath id="925ac3e39d"><path d="M 19 0 L 29.515625 0 L 29.515625 11 L 19 11 Z M 19 0 " clip-rule="nonzero"/></clipPath><clipPath id="1b570ca482"><path d="M 0.484375 25 L 29.515625 25 L 29.515625 29.03125 L 0.484375 29.03125 Z M 0.484375 25 " clip-rule="nonzero"/></clipPath><clipPath id="2be6ee3d71"><path d="M 0.484375 0 L 11 0 L 11 11 L 0.484375 11 Z M 0.484375 0 " clip-rule="nonzero"/></clipPath><clipPath id="61f8fecc0f"><path d="M 0.484375 11 L 11 11 L 11 15 L 0.484375 15 Z M 0.484375 11 " clip-rule="nonzero"/></clipPath><clipPath id="f874fd0fa2"><path d="M 19 11 L 29.515625 11 L 29.515625 15 L 19 15 Z M 19 11 " clip-rule="nonzero"/></clipPath></defs><g clip-path="url(#925ac3e39d)"><path fill="#bfa575" d="M 24.367188 0 C 21.527344 0 19.214844 2.3125 19.214844 5.152344 C 19.214844 7.988281 21.527344 10.300781 24.367188 10.300781 C 27.203125 10.300781 29.515625 7.988281 29.515625 5.152344 C 29.515625 2.3125 27.203125 0 24.367188 0 Z M 24.367188 1.671875 C 24.488281 1.671875 24.609375 1.722656 24.695312 1.808594 C 24.785156 1.898438 24.832031 2.015625 24.832031 2.140625 L 24.832031 2.582031 L 25.925781 2.582031 C 26.046875 2.582031 26.167969 2.628906 26.253906 2.71875 C 26.34375 2.804688 26.390625 2.925781 26.390625 3.046875 C 26.390625 3.171875 26.34375 3.292969 26.253906 3.378906 C 26.167969 3.46875 26.046875 3.515625 25.925781 3.515625 L 24.832031 3.515625 L 24.832031 4.683594 L 24.859375 4.683594 C 25.738281 4.683594 26.445312 5.371094 26.445312 6.203125 C 26.445312 7.03125 25.769531 7.722656 24.941406 7.722656 L 24.832031 7.722656 L 24.832031 8.160156 C 24.832031 8.285156 24.785156 8.40625 24.695312 8.492188 C 24.609375 8.582031 24.488281 8.628906 24.367188 8.628906 C 24.242188 8.628906 24.121094 8.582031 24.035156 8.492188 C 23.945312 8.40625 23.898438 8.285156 23.898438 8.160156 L 23.898438 7.722656 L 22.753906 7.722656 C 22.691406 7.722656 22.628906 7.710938 22.574219 7.6875 C 22.515625 7.664062 22.464844 7.628906 22.421875 7.585938 C 22.378906 7.539062 22.34375 7.488281 22.320312 7.433594 C 22.296875 7.375 22.285156 7.316406 22.285156 7.253906 C 22.285156 7.191406 22.296875 7.128906 22.320312 7.074219 C 22.34375 7.015625 22.378906 6.964844 22.421875 6.921875 C 22.464844 6.878906 22.515625 6.84375 22.574219 6.820312 C 22.628906 6.796875 22.691406 6.785156 22.753906 6.785156 L 23.898438 6.785156 L 23.898438 5.621094 L 23.792969 5.621094 C 22.960938 5.621094 22.285156 4.929688 22.285156 4.101562 C 22.285156 3.269531 22.960938 2.582031 23.792969 2.582031 L 23.898438 2.582031 L 23.898438 2.140625 C 23.898438 2.078125 23.910156 2.015625 23.933594 1.960938 C 23.957031 1.902344 23.992188 1.851562 24.035156 1.808594 C 24.078125 1.765625 24.128906 1.730469 24.1875 1.707031 C 24.242188 1.683594 24.304688 1.671875 24.367188 1.671875 Z M 23.792969 3.515625 C 23.46875 3.515625 23.21875 3.765625 23.21875 4.101562 C 23.21875 4.433594 23.46875 4.683594 23.792969 4.683594 L 23.898438 4.683594 L 23.898438 3.515625 Z M 24.832031 5.621094 L 24.832031 6.785156 L 24.941406 6.785156 C 25.261719 6.785156 25.511719 6.535156 25.511719 6.203125 C 25.511719 5.867188 25.292969 5.621094 24.859375 5.621094 Z M 24.832031 5.621094 " fill-opacity="1" fill-rule="nonzero"/></g><g clip-path="url(#1b570ca482)"><path fill="#bfa575" d="M 1.769531 25.285156 C 1.066406 25.285156 0.484375 25.867188 0.484375 26.574219 L 0.484375 27.746094 C 0.484375 28.449219 1.066406 29.03125 1.769531 29.03125 L 28.226562 29.03125 C 28.933594 29.03125 29.515625 28.449219 29.515625 27.746094 L 29.515625 26.574219 C 29.515625 25.867188 28.933594 25.285156 28.226562 25.285156 L 17.632812 25.285156 C 17.574219 25.285156 17.511719 25.296875 17.453125 25.320312 C 17.398438 25.34375 17.347656 25.378906 17.304688 25.421875 C 17.257812 25.464844 17.226562 25.519531 17.203125 25.574219 C 17.175781 25.632812 17.164062 25.691406 17.164062 25.753906 C 17.164062 25.816406 17.175781 25.875 17.203125 25.933594 C 17.226562 25.992188 17.257812 26.042969 17.304688 26.085938 C 17.347656 26.128906 17.398438 26.164062 17.453125 26.1875 C 17.511719 26.210938 17.574219 26.222656 17.632812 26.222656 L 28.226562 26.222656 C 28.429688 26.222656 28.578125 26.371094 28.578125 26.574219 L 28.578125 27.746094 C 28.578125 27.945312 28.429688 28.097656 28.226562 28.097656 L 1.769531 28.097656 C 1.570312 28.097656 1.421875 27.949219 1.421875 27.746094 L 1.421875 26.574219 C 1.421875 26.371094 1.570312 26.222656 1.769531 26.222656 L 12.367188 26.222656 C 12.425781 26.222656 12.488281 26.210938 12.546875 26.1875 C 12.601562 26.164062 12.652344 26.128906 12.695312 26.085938 C 12.742188 26.042969 12.773438 25.992188 12.796875 25.933594 C 12.824219 25.875 12.835938 25.816406 12.835938 25.753906 C 12.835938 25.691406 12.824219 25.632812 12.796875 25.574219 C 12.773438 25.519531 12.742188 25.464844 12.695312 25.421875 C 12.652344 25.378906 12.601562 25.34375 12.546875 25.320312 C 12.488281 25.296875 12.425781 25.285156 12.367188 25.285156 Z M 1.769531 25.285156 " fill-opacity="1" fill-rule="nonzero"/></g><path fill="#bfa575" d="M 15 13.335938 C 14.125 13.335938 13.40625 14.054688 13.40625 14.925781 C 13.40625 15.800781 14.125 16.519531 15 16.519531 C 15.875 16.519531 16.59375 15.800781 16.59375 14.925781 C 16.59375 14.054688 15.875 13.335938 15 13.335938 Z M 15 14.269531 C 15.367188 14.269531 15.65625 14.558594 15.65625 14.925781 C 15.65625 15.292969 15.367188 15.582031 15 15.582031 C 14.632812 15.582031 14.34375 15.292969 14.34375 14.925781 C 14.34375 14.558594 14.632812 14.269531 15 14.269531 Z M 15 14.269531 " fill-opacity="1" fill-rule="nonzero"/><path fill="#bfa575" d="M 15 11.648438 C 13.195312 11.648438 11.722656 13.121094 11.722656 14.925781 C 11.722656 16.730469 13.195312 18.203125 15 18.203125 C 16.804688 18.203125 18.277344 16.730469 18.277344 14.925781 C 18.277344 13.121094 16.804688 11.648438 15 11.648438 Z M 15 12.585938 C 16.296875 12.585938 17.339844 13.628906 17.339844 14.925781 C 17.339844 16.226562 16.296875 17.269531 15 17.269531 C 13.703125 17.269531 12.660156 16.226562 12.660156 14.925781 C 12.660156 13.628906 13.703125 12.585938 15 12.585938 Z M 15 12.585938 " fill-opacity="1" fill-rule="nonzero"/><g clip-path="url(#2be6ee3d71)"><path fill="#bfa575" d="M 5.632812 0 C 2.796875 0 0.484375 2.3125 0.484375 5.152344 C 0.484375 7.988281 2.796875 10.300781 5.632812 10.300781 C 8.472656 10.300781 10.785156 7.988281 10.785156 5.152344 C 10.785156 2.3125 8.472656 0 5.632812 0 Z M 5.632812 0.9375 C 7.96875 0.9375 9.847656 2.816406 9.847656 5.152344 C 9.847656 7.484375 7.96875 9.363281 5.632812 9.363281 C 3.300781 9.363281 1.421875 7.484375 1.421875 5.152344 C 1.421875 2.816406 3.300781 0.9375 5.632812 0.9375 Z M 5.632812 0.9375 " fill-opacity="1" fill-rule="nonzero"/></g><path fill="#bfa575" d="M 5.632812 1.671875 C 5.574219 1.671875 5.511719 1.683594 5.457031 1.707031 C 5.398438 1.730469 5.347656 1.765625 5.304688 1.808594 C 5.261719 1.851562 5.226562 1.902344 5.203125 1.960938 C 5.179688 2.015625 5.167969 2.078125 5.167969 2.140625 L 5.167969 8.160156 C 5.167969 8.285156 5.214844 8.40625 5.304688 8.492188 C 5.390625 8.582031 5.511719 8.628906 5.632812 8.628906 C 5.757812 8.628906 5.878906 8.582031 5.964844 8.492188 C 6.054688 8.40625 6.101562 8.285156 6.101562 8.160156 L 6.101562 2.140625 C 6.101562 2.078125 6.089844 2.015625 6.066406 1.960938 C 6.042969 1.902344 6.007812 1.851562 5.964844 1.808594 C 5.921875 1.765625 5.871094 1.730469 5.8125 1.707031 C 5.757812 1.683594 5.695312 1.671875 5.632812 1.671875 Z M 5.632812 1.671875 " fill-opacity="1" fill-rule="nonzero"/><path fill="#bfa575" d="M 5.058594 2.582031 C 4.230469 2.582031 3.554688 3.269531 3.554688 4.101562 C 3.554688 4.929688 4.230469 5.621094 5.058594 5.621094 L 6.128906 5.621094 C 6.5625 5.621094 6.78125 5.867188 6.78125 6.203125 C 6.78125 6.535156 6.53125 6.785156 6.207031 6.785156 L 4.023438 6.785156 C 3.960938 6.785156 3.898438 6.796875 3.84375 6.820312 C 3.785156 6.84375 3.734375 6.878906 3.691406 6.921875 C 3.648438 6.964844 3.613281 7.015625 3.589844 7.074219 C 3.566406 7.128906 3.554688 7.191406 3.554688 7.253906 C 3.554688 7.316406 3.566406 7.375 3.589844 7.433594 C 3.613281 7.488281 3.648438 7.539062 3.691406 7.585938 C 3.734375 7.628906 3.785156 7.664062 3.84375 7.6875 C 3.898438 7.710938 3.960938 7.722656 4.023438 7.722656 L 6.207031 7.722656 C 7.039062 7.722656 7.714844 7.03125 7.714844 6.203125 C 7.714844 5.371094 7.007812 4.683594 6.128906 4.683594 L 5.058594 4.683594 C 4.738281 4.683594 4.488281 4.433594 4.488281 4.101562 C 4.488281 3.765625 4.738281 3.515625 5.058594 3.515625 L 7.191406 3.515625 C 7.253906 3.515625 7.316406 3.503906 7.371094 3.480469 C 7.429688 3.457031 7.480469 3.421875 7.523438 3.378906 C 7.566406 3.335938 7.601562 3.285156 7.625 3.226562 C 7.648438 3.171875 7.660156 3.109375 7.660156 3.046875 C 7.660156 2.925781 7.613281 2.804688 7.523438 2.71875 C 7.4375 2.628906 7.316406 2.582031 7.191406 2.582031 Z M 5.058594 2.582031 " fill-opacity="1" fill-rule="nonzero"/><g clip-path="url(#61f8fecc0f)"><path fill="#bfa575" d="M 2.238281 11.707031 C 1.535156 11.707031 0.953125 12.289062 0.953125 12.996094 L 0.953125 13.226562 C 0.953125 13.933594 1.535156 14.515625 2.238281 14.515625 L 9.03125 14.515625 C 9.734375 14.515625 10.316406 13.933594 10.316406 13.226562 L 10.316406 12.996094 C 10.316406 12.289062 9.734375 11.707031 9.03125 11.707031 Z M 2.238281 12.644531 L 9.03125 12.644531 C 9.230469 12.644531 9.378906 12.792969 9.378906 12.996094 L 9.378906 13.226562 C 9.378906 13.429688 9.230469 13.578125 9.03125 13.578125 L 2.238281 13.578125 C 2.035156 13.578125 1.886719 13.429688 1.886719 13.226562 L 1.886719 12.996094 C 1.886719 12.792969 2.035156 12.644531 2.238281 12.644531 Z M 2.238281 12.644531 " fill-opacity="1" fill-rule="nonzero"/></g><g clip-path="url(#f874fd0fa2)"><path fill="#bfa575" d="M 20.96875 11.707031 C 20.265625 11.707031 19.683594 12.289062 19.683594 12.996094 L 19.683594 13.226562 C 19.683594 13.933594 20.265625 14.515625 20.96875 14.515625 L 27.761719 14.515625 C 28.464844 14.515625 29.046875 13.933594 29.046875 13.226562 L 29.046875 12.996094 C 29.046875 12.289062 28.464844 11.707031 27.761719 11.707031 Z M 20.96875 12.644531 L 27.761719 12.644531 C 27.964844 12.644531 28.109375 12.792969 28.109375 12.996094 L 28.109375 13.226562 C 28.109375 13.429688 27.964844 13.578125 27.761719 13.578125 L 20.96875 13.578125 C 20.765625 13.578125 20.621094 13.429688 20.621094 13.226562 L 20.621094 12.996094 C 20.621094 12.792969 20.765625 12.644531 20.96875 12.644531 Z M 20.96875 12.644531 " fill-opacity="1" fill-rule="nonzero"/></g><path fill="#bfa575" d="M 5.632812 13.578125 C 5.574219 13.578125 5.511719 13.589844 5.457031 13.617188 C 5.398438 13.640625 5.347656 13.671875 5.304688 13.714844 C 5.261719 13.761719 5.226562 13.8125 5.203125 13.867188 C 5.179688 13.925781 5.167969 13.988281 5.167969 14.046875 L 5.167969 16.390625 C 5.167969 16.449219 5.179688 16.511719 5.203125 16.566406 C 5.226562 16.625 5.261719 16.675781 5.304688 16.71875 C 5.347656 16.765625 5.398438 16.796875 5.457031 16.820312 C 5.511719 16.84375 5.574219 16.855469 5.632812 16.855469 L 12.601562 16.855469 C 12.664062 16.855469 12.722656 16.84375 12.78125 16.820312 C 12.835938 16.796875 12.890625 16.765625 12.933594 16.71875 C 12.976562 16.675781 13.011719 16.625 13.035156 16.566406 C 13.058594 16.511719 13.070312 16.449219 13.070312 16.390625 C 13.070312 16.265625 13.019531 16.144531 12.933594 16.058594 C 12.84375 15.96875 12.726562 15.921875 12.601562 15.921875 L 6.101562 15.921875 L 6.101562 14.046875 C 6.101562 13.988281 6.089844 13.925781 6.066406 13.867188 C 6.042969 13.8125 6.007812 13.761719 5.964844 13.714844 C 5.921875 13.671875 5.871094 13.640625 5.8125 13.617188 C 5.757812 13.589844 5.695312 13.578125 5.632812 13.578125 Z M 5.632812 13.578125 " fill-opacity="1" fill-rule="nonzero"/><path fill="#bfa575" d="M 24.367188 13.578125 C 24.304688 13.578125 24.242188 13.589844 24.1875 13.617188 C 24.128906 13.640625 24.078125 13.671875 24.035156 13.714844 C 23.992188 13.761719 23.957031 13.8125 23.933594 13.867188 C 23.910156 13.925781 23.898438 13.988281 23.898438 14.046875 L 23.898438 15.921875 L 17.398438 15.921875 C 17.273438 15.921875 17.15625 15.96875 17.066406 16.058594 C 16.980469 16.144531 16.929688 16.265625 16.929688 16.390625 C 16.929688 16.449219 16.941406 16.511719 16.964844 16.566406 C 16.988281 16.625 17.023438 16.675781 17.066406 16.71875 C 17.109375 16.765625 17.164062 16.796875 17.21875 16.820312 C 17.277344 16.84375 17.335938 16.855469 17.398438 16.855469 L 24.367188 16.855469 C 24.488281 16.855469 24.609375 16.808594 24.695312 16.71875 C 24.785156 16.632812 24.832031 16.511719 24.832031 16.390625 L 24.832031 14.046875 C 24.832031 13.925781 24.785156 13.804688 24.695312 13.71875 C 24.609375 13.628906 24.488281 13.578125 24.367188 13.578125 Z M 24.367188 13.578125 " fill-opacity="1" fill-rule="nonzero"/><path fill="#bfa575" d="M 12.957031 16.886719 C 12.902344 16.910156 12.847656 16.945312 12.804688 16.984375 C 12.761719 17.027344 12.722656 17.078125 12.699219 17.136719 L 8.953125 25.5625 C 8.902344 25.675781 8.898438 25.804688 8.945312 25.921875 C 8.988281 26.039062 9.078125 26.132812 9.191406 26.183594 C 9.304688 26.234375 9.433594 26.234375 9.546875 26.191406 C 9.664062 26.148438 9.757812 26.058594 9.808594 25.945312 L 13.554688 17.515625 C 13.605469 17.402344 13.609375 17.273438 13.5625 17.15625 C 13.519531 17.042969 13.429688 16.949219 13.316406 16.898438 C 13.203125 16.847656 13.074219 16.84375 12.957031 16.886719 Z M 16.683594 16.898438 C 16.570312 16.949219 16.480469 17.042969 16.4375 17.15625 C 16.390625 17.273438 16.394531 17.402344 16.445312 17.515625 L 20.191406 25.945312 C 20.214844 26 20.25 26.050781 20.296875 26.09375 C 20.339844 26.136719 20.394531 26.167969 20.449219 26.191406 C 20.507812 26.214844 20.570312 26.222656 20.632812 26.222656 C 20.691406 26.222656 20.753906 26.207031 20.808594 26.183594 C 20.921875 26.132812 21.011719 26.039062 21.054688 25.921875 C 21.101562 25.804688 21.097656 25.679688 21.046875 25.5625 L 17.300781 17.136719 C 17.25 17.023438 17.15625 16.933594 17.042969 16.890625 C 16.925781 16.84375 16.796875 16.847656 16.683594 16.898438 Z M 16.683594 16.898438 " fill-opacity="1" fill-rule="nonzero"/><path fill="#bfa575" d="M 16.351562 25.75 C 16.351562 25.875 16.300781 25.996094 16.210938 26.085938 C 16.125 26.171875 16.003906 26.222656 15.878906 26.222656 C 15.753906 26.222656 15.632812 26.171875 15.546875 26.085938 C 15.457031 25.996094 15.410156 25.875 15.410156 25.75 C 15.410156 25.625 15.457031 25.507812 15.546875 25.417969 C 15.632812 25.328125 15.753906 25.28125 15.878906 25.28125 C 16.003906 25.28125 16.125 25.328125 16.210938 25.417969 C 16.300781 25.507812 16.351562 25.625 16.351562 25.75 Z M 16.351562 25.75 " fill-opacity="1" fill-rule="nonzero"/><path fill="#bfa575" d="M 14.589844 25.75 C 14.589844 25.875 14.542969 25.996094 14.453125 26.085938 C 14.367188 26.171875 14.246094 26.222656 14.121094 26.222656 C 13.996094 26.222656 13.875 26.171875 13.789062 26.085938 C 13.699219 25.996094 13.648438 25.875 13.648438 25.75 C 13.648438 25.625 13.699219 25.507812 13.789062 25.417969 C 13.875 25.328125 13.996094 25.28125 14.121094 25.28125 C 14.246094 25.28125 14.367188 25.328125 14.453125 25.417969 C 14.542969 25.507812 14.589844 25.625 14.589844 25.75 Z M 14.589844 25.75 " fill-opacity="1" fill-rule="nonzero"/></svg>