<svg xmlns="http://www.w3.org/2000/svg" xmlns:xlink="http://www.w3.org/1999/xlink" width="40" zoomAndPan="magnify" viewBox="0 0 30 30.000001" height="40" preserveAspectRatio="xMidYMid meet" version="1.0"><defs><clipPath id="512a0ce20a"><path d="M 18 10 L 29.515625 10 L 29.515625 27.835938 L 18 27.835938 Z M 18 10 " clip-rule="nonzero"/></clipPath><clipPath id="7f2048f6f0"><path d="M 2 0.980469 L 28 0.980469 L 28 27 L 2 27 Z M 2 0.980469 " clip-rule="nonzero"/></clipPath><clipPath id="b95c9c1c79"><path d="M 0.484375 21 L 2 21 L 2 23 L 0.484375 23 Z M 0.484375 21 " clip-rule="nonzero"/></clipPath><clipPath id="35832c8c58"><path d="M 0.484375 9 L 2 9 L 2 21 L 0.484375 21 Z M 0.484375 9 " clip-rule="nonzero"/></clipPath><clipPath id="ff8f079da0"><path d="M 28 3 L 29.515625 3 L 29.515625 12 L 28 12 Z M 28 3 " clip-rule="nonzero"/></clipPath></defs><path fill="#bfa575" d="M 26.601562 26.601562 L 27.566406 26.601562 L 27.566406 25.632812 L 26.601562 25.632812 L 26.601562 26.601562 " fill-opacity="1" fill-rule="nonzero"/><g clip-path="url(#512a0ce20a)"><path fill="#bfa575" d="M 28.535156 18.152344 C 28.535156 19.496094 28.21875 20.835938 27.617188 22.03125 C 27.585938 22.101562 27.566406 22.175781 27.566406 22.25 L 27.566406 23.699219 L 22.734375 23.699219 L 22.734375 23.023438 C 22.734375 22.378906 22.414062 21.777344 21.875 21.417969 L 20.550781 20.535156 C 20.101562 20.238281 19.832031 19.734375 19.832031 19.195312 C 19.832031 18.578125 20.175781 18.027344 20.726562 17.75 L 20.800781 17.714844 L 20.800781 18.867188 L 21.765625 18.867188 L 21.765625 12.097656 C 21.765625 11.832031 21.984375 11.613281 22.25 11.613281 C 22.515625 11.613281 22.734375 11.832031 22.734375 12.097656 L 22.734375 16.449219 L 23.699219 16.449219 L 23.699219 14.515625 C 23.699219 14.25 23.917969 14.03125 24.183594 14.03125 C 24.449219 14.03125 24.667969 14.25 24.667969 14.515625 L 24.667969 16.933594 L 25.632812 16.933594 L 25.632812 15.480469 C 25.632812 15.214844 25.851562 15 26.117188 15 C 26.382812 15 26.601562 15.214844 26.601562 15.480469 L 26.601562 17.414062 L 27.566406 17.414062 L 27.566406 15.964844 C 27.566406 15.699219 27.785156 15.480469 28.050781 15.480469 C 28.316406 15.480469 28.535156 15.699219 28.535156 15.964844 Z M 28.050781 14.515625 C 27.792969 14.515625 27.550781 14.589844 27.339844 14.710938 C 27.082031 14.304688 26.632812 14.03125 26.117188 14.03125 C 25.925781 14.03125 25.746094 14.070312 25.582031 14.136719 C 25.410156 13.523438 24.851562 13.066406 24.183594 13.066406 C 24.015625 13.066406 23.855469 13.101562 23.699219 13.152344 L 23.699219 12.097656 C 23.699219 11.296875 23.050781 10.648438 22.25 10.648438 C 21.449219 10.648438 20.800781 11.296875 20.800781 12.097656 L 20.800781 16.632812 L 20.292969 16.886719 C 19.414062 17.328125 18.867188 18.210938 18.867188 19.195312 C 18.867188 20.058594 19.296875 20.863281 20.015625 21.339844 L 21.335938 22.222656 C 21.605469 22.398438 21.765625 22.699219 21.765625 23.023438 L 21.765625 23.699219 L 21.285156 23.699219 C 21.019531 23.699219 20.800781 23.917969 20.800781 24.183594 L 20.800781 28.050781 L 21.765625 28.050781 L 21.765625 24.667969 L 28.535156 24.667969 L 28.535156 28.050781 L 29.5 28.050781 L 29.5 24.183594 C 29.5 23.917969 29.285156 23.699219 29.019531 23.699219 L 28.535156 23.699219 L 28.535156 22.363281 C 29.167969 21.054688 29.5 19.605469 29.5 18.152344 L 29.5 15.964844 C 29.5 15.164062 28.851562 14.515625 28.050781 14.515625 " fill-opacity="1" fill-rule="nonzero"/></g><g clip-path="url(#7f2048f6f0)"><path fill="#bfa575" d="M 3.398438 4.847656 L 3.398438 2.914062 C 3.398438 2.382812 3.832031 1.945312 4.363281 1.945312 L 25.632812 1.945312 C 26.167969 1.945312 26.601562 2.382812 26.601562 2.914062 L 26.601562 4.847656 Z M 27.566406 13.546875 L 27.566406 2.914062 C 27.566406 1.847656 26.703125 0.980469 25.632812 0.980469 L 4.363281 0.980469 C 3.296875 0.980469 2.429688 1.847656 2.429688 2.914062 L 2.429688 24.667969 C 2.429688 25.734375 3.296875 26.601562 4.363281 26.601562 L 19.832031 26.601562 L 19.832031 25.632812 L 4.363281 25.632812 C 3.832031 25.632812 3.398438 25.199219 3.398438 24.667969 L 3.398438 5.8125 L 26.601562 5.8125 L 26.601562 13.546875 L 27.566406 13.546875 " fill-opacity="1" fill-rule="nonzero"/></g><path fill="#bfa575" d="M 4.363281 3.878906 L 5.332031 3.878906 L 5.332031 2.914062 L 4.363281 2.914062 L 4.363281 3.878906 " fill-opacity="1" fill-rule="nonzero"/><path fill="#bfa575" d="M 6.296875 3.878906 L 7.265625 3.878906 L 7.265625 2.914062 L 6.296875 2.914062 L 6.296875 3.878906 " fill-opacity="1" fill-rule="nonzero"/><path fill="#bfa575" d="M 8.230469 3.878906 L 9.199219 3.878906 L 9.199219 2.914062 L 8.230469 2.914062 L 8.230469 3.878906 " fill-opacity="1" fill-rule="nonzero"/><path fill="#bfa575" d="M 5.816406 7.265625 L 4.847656 7.265625 L 4.847656 8.230469 L 5.816406 8.230469 L 5.816406 7.265625 " fill-opacity="1" fill-rule="nonzero"/><path fill="#bfa575" d="M 5.816406 9.199219 L 4.847656 9.199219 L 4.847656 23.699219 C 4.847656 23.964844 5.066406 24.183594 5.332031 24.183594 L 19.832031 24.183594 L 19.832031 23.214844 L 5.816406 23.214844 L 5.816406 9.199219 " fill-opacity="1" fill-rule="nonzero"/><path fill="#bfa575" d="M 16.933594 14.515625 C 16.667969 14.515625 16.449219 14.296875 16.449219 14.03125 C 16.449219 13.765625 16.667969 13.546875 16.933594 13.546875 C 17.199219 13.546875 17.417969 13.765625 17.417969 14.03125 C 17.417969 14.296875 17.199219 14.515625 16.933594 14.515625 Z M 11.617188 11.613281 C 11.351562 11.613281 11.132812 11.398438 11.132812 11.132812 C 11.132812 10.863281 11.351562 10.648438 11.617188 10.648438 C 11.882812 10.648438 12.097656 10.863281 12.097656 11.132812 C 12.097656 11.398438 11.882812 11.613281 11.617188 11.613281 Z M 20.800781 7.746094 C 21.066406 7.746094 21.285156 7.964844 21.285156 8.230469 C 21.285156 8.496094 21.066406 8.714844 20.800781 8.714844 C 20.535156 8.714844 20.316406 8.496094 20.316406 8.230469 C 20.316406 7.964844 20.535156 7.746094 20.800781 7.746094 Z M 8.714844 20.316406 C 8.449219 20.316406 8.230469 20.097656 8.230469 19.832031 C 8.230469 19.566406 8.449219 19.347656 8.714844 19.347656 C 8.980469 19.347656 9.199219 19.566406 9.199219 19.832031 C 9.199219 20.097656 8.980469 20.316406 8.714844 20.316406 Z M 20.800781 9.679688 C 21.601562 9.679688 22.25 9.03125 22.25 8.230469 C 22.25 7.429688 21.601562 6.78125 20.800781 6.78125 C 20 6.78125 19.351562 7.429688 19.351562 8.230469 C 19.351562 8.597656 19.492188 8.933594 19.722656 9.1875 L 17.160156 12.605469 C 17.085938 12.59375 17.011719 12.582031 16.933594 12.582031 C 16.550781 12.582031 16.203125 12.734375 15.945312 12.976562 L 13.046875 11.324219 C 13.054688 11.261719 13.066406 11.199219 13.066406 11.132812 C 13.066406 10.332031 12.417969 9.679688 11.617188 9.679688 C 10.816406 9.679688 10.164062 10.332031 10.164062 11.132812 C 10.164062 11.542969 10.335938 11.910156 10.613281 12.171875 L 9.761719 15.359375 L 8.089844 13.691406 L 7.40625 14.375 L 9.476562 16.441406 L 8.949219 18.40625 C 8.875 18.394531 8.796875 18.382812 8.714844 18.382812 C 7.914062 18.382812 7.265625 19.03125 7.265625 19.832031 C 7.265625 20.632812 7.914062 21.28125 8.714844 21.28125 C 9.515625 21.28125 10.164062 20.632812 10.164062 19.832031 C 10.164062 19.476562 10.03125 19.15625 9.820312 18.902344 L 10.265625 17.230469 L 11.757812 18.722656 C 11.945312 18.914062 12.253906 18.914062 12.441406 18.722656 L 14.515625 16.648438 L 17.074219 19.207031 L 17.757812 18.523438 L 14.859375 15.625 C 14.667969 15.433594 14.363281 15.433594 14.175781 15.625 L 12.097656 17.699219 L 10.550781 16.152344 L 11.507812 12.570312 C 11.542969 12.574219 11.578125 12.582031 11.617188 12.582031 C 12 12.582031 12.347656 12.429688 12.605469 12.183594 L 15.503906 13.839844 C 15.496094 13.902344 15.484375 13.964844 15.484375 14.03125 C 15.484375 14.832031 16.132812 15.480469 16.933594 15.480469 C 17.734375 15.480469 18.382812 14.832031 18.382812 14.03125 C 18.382812 13.664062 18.242188 13.328125 18.011719 13.074219 L 20.574219 9.660156 C 20.648438 9.667969 20.722656 9.679688 20.800781 9.679688 " fill-opacity="1" fill-rule="nonzero"/><g clip-path="url(#b95c9c1c79)"><path fill="#bfa575" d="M 0.496094 22.734375 L 1.464844 22.734375 L 1.464844 21.765625 L 0.496094 21.765625 L 0.496094 22.734375 " fill-opacity="1" fill-rule="nonzero"/></g><g clip-path="url(#35832c8c58)"><path fill="#bfa575" d="M 0.496094 20.800781 L 1.464844 20.800781 L 1.464844 9.199219 L 0.496094 9.199219 L 0.496094 20.800781 " fill-opacity="1" fill-rule="nonzero"/></g><g clip-path="url(#ff8f079da0)"><path fill="#bfa575" d="M 28.535156 11.613281 L 29.5 11.613281 L 29.5 3.878906 L 28.535156 3.878906 L 28.535156 11.613281 " fill-opacity="1" fill-rule="nonzero"/></g></svg>