<svg xmlns="http://www.w3.org/2000/svg" xmlns:xlink="http://www.w3.org/1999/xlink" width="40" zoomAndPan="magnify" viewBox="0 0 30 30.000001" height="40" preserveAspectRatio="xMidYMid meet" version="1.0"><defs><clipPath id="25511f6c56"><path d="M 0.484375 0 L 29.515625 0 L 29.515625 28.304688 L 0.484375 28.304688 Z M 0.484375 0 " clip-rule="nonzero"/></clipPath></defs><path fill="#bfa575" d="M 13.765625 3.660156 L 14.679688 3.660156 L 14.679688 4.578125 L 13.765625 4.578125 Z M 13.765625 3.660156 " fill-opacity="1" fill-rule="nonzero"/><path fill="#bfa575" d="M 15.59375 3.660156 L 16.511719 3.660156 L 16.511719 4.578125 L 15.59375 4.578125 Z M 15.59375 3.660156 " fill-opacity="1" fill-rule="nonzero"/><path fill="#bfa575" d="M 5.070312 21.964844 C 4.886719 21.964844 4.710938 22 4.542969 22.070312 C 4.375 22.140625 4.226562 22.238281 4.097656 22.367188 C 3.96875 22.496094 3.871094 22.644531 3.800781 22.8125 C 3.730469 22.980469 3.695312 23.15625 3.695312 23.339844 C 3.695312 23.519531 3.730469 23.695312 3.800781 23.863281 C 3.871094 24.03125 3.96875 24.179688 4.097656 24.308594 C 4.226562 24.4375 4.375 24.539062 4.542969 24.605469 C 4.710938 24.675781 4.886719 24.710938 5.070312 24.710938 C 5.25 24.710938 5.425781 24.675781 5.59375 24.605469 C 5.761719 24.539062 5.910156 24.4375 6.039062 24.308594 C 6.167969 24.179688 6.269531 24.03125 6.335938 23.863281 C 6.40625 23.695312 6.441406 23.519531 6.441406 23.339844 C 6.441406 23.15625 6.40625 22.980469 6.335938 22.8125 C 6.269531 22.644531 6.167969 22.496094 6.039062 22.367188 C 5.910156 22.238281 5.761719 22.140625 5.59375 22.070312 C 5.425781 22 5.25 21.964844 5.070312 21.964844 Z M 5.070312 23.796875 C 4.941406 23.796875 4.835938 23.75 4.746094 23.664062 C 4.65625 23.574219 4.613281 23.464844 4.613281 23.339844 C 4.613281 23.210938 4.65625 23.105469 4.746094 23.015625 C 4.835938 22.925781 4.941406 22.882812 5.070312 22.882812 C 5.195312 22.882812 5.304688 22.925781 5.394531 23.015625 C 5.484375 23.105469 5.527344 23.210938 5.527344 23.339844 C 5.527344 23.464844 5.484375 23.574219 5.394531 23.664062 C 5.304688 23.75 5.195312 23.796875 5.070312 23.796875 Z M 5.070312 23.796875 " fill-opacity="1" fill-rule="nonzero"/><path fill="#bfa575" d="M 15.136719 21.964844 C 14.957031 21.964844 14.78125 22 14.613281 22.070312 C 14.445312 22.140625 14.296875 22.238281 14.167969 22.367188 C 14.039062 22.496094 13.9375 22.644531 13.867188 22.8125 C 13.800781 22.980469 13.765625 23.15625 13.765625 23.339844 C 13.765625 23.519531 13.800781 23.695312 13.867188 23.863281 C 13.9375 24.03125 14.039062 24.179688 14.167969 24.308594 C 14.296875 24.4375 14.445312 24.539062 14.613281 24.605469 C 14.78125 24.675781 14.957031 24.710938 15.136719 24.710938 C 15.320312 24.710938 15.496094 24.675781 15.664062 24.605469 C 15.832031 24.539062 15.980469 24.4375 16.109375 24.308594 C 16.238281 24.179688 16.335938 24.03125 16.40625 23.863281 C 16.476562 23.695312 16.511719 23.519531 16.511719 23.339844 C 16.511719 23.15625 16.476562 22.980469 16.40625 22.8125 C 16.335938 22.644531 16.238281 22.496094 16.109375 22.367188 C 15.980469 22.238281 15.832031 22.140625 15.664062 22.070312 C 15.496094 22 15.320312 21.964844 15.136719 21.964844 Z M 15.136719 23.796875 C 15.011719 23.796875 14.902344 23.75 14.8125 23.664062 C 14.722656 23.574219 14.679688 23.464844 14.679688 23.339844 C 14.679688 23.210938 14.722656 23.105469 14.8125 23.015625 C 14.902344 22.925781 15.011719 22.882812 15.136719 22.882812 C 15.261719 22.882812 15.371094 22.925781 15.460938 23.015625 C 15.550781 23.105469 15.59375 23.210938 15.59375 23.339844 C 15.59375 23.464844 15.550781 23.574219 15.460938 23.664062 C 15.371094 23.75 15.261719 23.796875 15.136719 23.796875 Z M 15.136719 23.796875 " fill-opacity="1" fill-rule="nonzero"/><g clip-path="url(#25511f6c56)"><path fill="#bfa575" d="M 25.207031 20.136719 C 24.808594 20.136719 24.421875 20.191406 24.042969 20.304688 C 23.664062 20.414062 23.308594 20.578125 22.976562 20.792969 C 22.644531 21.007812 22.347656 21.261719 22.089844 21.5625 C 21.832031 21.863281 21.621094 22.191406 21.457031 22.550781 L 20.789062 20.542969 C 21.296875 20.464844 21.773438 20.296875 22.21875 20.039062 C 22.664062 19.785156 23.046875 19.453125 23.367188 19.054688 C 23.6875 18.65625 23.929688 18.210938 24.082031 17.71875 C 24.238281 17.230469 24.300781 16.730469 24.269531 16.21875 C 24.238281 15.707031 24.113281 15.214844 23.898438 14.75 C 23.683594 14.28125 23.390625 13.871094 23.023438 13.515625 C 22.65625 13.15625 22.234375 12.878906 21.761719 12.679688 C 21.289062 12.480469 20.792969 12.371094 20.28125 12.355469 L 17.25 10.984375 L 22 10.984375 L 22 10.066406 L 20.171875 10.066406 L 20.171875 5.878906 C 20.171875 5.683594 20.082031 5.546875 19.90625 5.464844 L 18.339844 4.742188 L 18.339844 2.289062 C 18.339844 2.160156 18.296875 2.054688 18.207031 1.964844 C 18.117188 1.875 18.007812 1.832031 17.882812 1.832031 L 16.96875 1.832031 L 16.96875 0.457031 C 16.96875 0.332031 16.921875 0.222656 16.832031 0.132812 C 16.746094 0.0429688 16.636719 0 16.511719 0 L 13.765625 0 C 13.636719 0 13.53125 0.0429688 13.441406 0.132812 C 13.351562 0.222656 13.308594 0.332031 13.308594 0.457031 L 13.308594 1.832031 L 12.390625 1.832031 C 12.265625 1.832031 12.15625 1.875 12.066406 1.964844 C 11.980469 2.054688 11.933594 2.160156 11.933594 2.289062 L 11.933594 4.742188 L 10.367188 5.464844 C 10.191406 5.546875 10.101562 5.683594 10.101562 5.878906 L 10.101562 10.066406 L 8.273438 10.066406 L 8.273438 10.984375 L 13.023438 10.984375 L 9.992188 12.355469 C 9.484375 12.375 8.992188 12.484375 8.519531 12.683594 C 8.050781 12.886719 7.632812 13.164062 7.265625 13.519531 C 6.898438 13.878906 6.609375 14.289062 6.398438 14.753906 C 6.183594 15.21875 6.0625 15.707031 6.027344 16.214844 C 5.996094 16.726562 6.058594 17.226562 6.214844 17.714844 C 6.367188 18.203125 6.605469 18.644531 6.921875 19.042969 C 7.242188 19.445312 7.625 19.773438 8.066406 20.03125 C 8.507812 20.289062 8.980469 20.457031 9.484375 20.539062 L 8.816406 22.546875 C 8.679688 22.242188 8.503906 21.957031 8.296875 21.695312 C 8.089844 21.429688 7.851562 21.195312 7.589844 20.992188 C 7.324219 20.785156 7.035156 20.613281 6.730469 20.480469 C 6.421875 20.34375 6.105469 20.246094 5.773438 20.191406 C 5.441406 20.132812 5.109375 20.113281 4.777344 20.136719 C 4.441406 20.164062 4.113281 20.226562 3.796875 20.328125 C 3.476562 20.433594 3.175781 20.574219 2.890625 20.75 C 2.605469 20.925781 2.34375 21.136719 2.113281 21.378906 C 1.878906 21.617188 1.675781 21.882812 1.507812 22.171875 C 1.339844 22.464844 1.207031 22.769531 1.113281 23.089844 C 1.019531 23.414062 0.964844 23.742188 0.949219 24.078125 C 0.9375 24.410156 0.964844 24.742188 1.03125 25.074219 C 1.097656 25.402344 1.203125 25.71875 1.347656 26.019531 C 1.492188 26.324219 1.671875 26.605469 1.882812 26.863281 C 2.097656 27.121094 2.339844 27.351562 2.609375 27.550781 C 2.878906 27.753906 3.167969 27.917969 3.476562 28.046875 C 3.785156 28.175781 4.105469 28.265625 4.4375 28.316406 C 4.769531 28.367188 5.101562 28.378906 5.4375 28.347656 C 5.769531 28.320312 6.097656 28.25 6.414062 28.140625 C 6.730469 28.03125 7.027344 27.882812 7.308594 27.699219 C 7.589844 27.515625 7.847656 27.304688 8.074219 27.058594 C 8.304688 26.8125 8.5 26.542969 8.664062 26.25 C 8.828125 25.957031 8.953125 25.648438 9.039062 25.324219 C 9.128906 25 9.175781 24.671875 9.183594 24.335938 L 10.097656 21.589844 L 11.015625 24.335938 C 11.015625 24.605469 11.039062 24.875 11.09375 25.140625 C 11.144531 25.40625 11.222656 25.664062 11.328125 25.914062 C 11.429688 26.164062 11.558594 26.398438 11.707031 26.625 C 11.859375 26.851562 12.027344 27.058594 12.21875 27.25 C 12.410156 27.441406 12.621094 27.609375 12.84375 27.761719 C 13.070312 27.910156 13.308594 28.039062 13.554688 28.140625 C 13.804688 28.246094 14.0625 28.324219 14.328125 28.375 C 14.59375 28.429688 14.863281 28.457031 15.132812 28.457031 C 15.402344 28.457031 15.671875 28.429688 15.9375 28.375 C 16.203125 28.324219 16.460938 28.246094 16.707031 28.140625 C 16.957031 28.039062 17.195312 27.910156 17.421875 27.761719 C 17.644531 27.609375 17.855469 27.441406 18.046875 27.25 C 18.234375 27.058594 18.40625 26.851562 18.558594 26.625 C 18.707031 26.398438 18.835938 26.164062 18.9375 25.914062 C 19.042969 25.664062 19.121094 25.40625 19.171875 25.140625 C 19.226562 24.875 19.25 24.605469 19.25 24.335938 L 20.167969 21.589844 L 21.082031 24.335938 C 21.085938 24.605469 21.117188 24.871094 21.175781 25.136719 C 21.234375 25.398438 21.316406 25.652344 21.425781 25.898438 C 21.53125 26.144531 21.660156 26.378906 21.816406 26.601562 C 21.96875 26.824219 22.140625 27.027344 22.335938 27.214844 C 22.527344 27.402344 22.738281 27.566406 22.964844 27.714844 C 23.191406 27.859375 23.429688 27.984375 23.679688 28.082031 C 23.929688 28.179688 24.1875 28.253906 24.453125 28.304688 C 24.714844 28.351562 24.984375 28.375 25.253906 28.371094 C 25.523438 28.367188 25.789062 28.339844 26.050781 28.285156 C 26.316406 28.226562 26.570312 28.148438 26.816406 28.042969 C 27.066406 27.9375 27.300781 27.808594 27.523438 27.65625 C 27.746094 27.503906 27.949219 27.332031 28.140625 27.140625 C 28.328125 26.945312 28.496094 26.738281 28.644531 26.511719 C 28.792969 26.289062 28.914062 26.050781 29.015625 25.800781 C 29.117188 25.550781 29.195312 25.296875 29.246094 25.03125 C 29.296875 24.765625 29.320312 24.5 29.316406 24.230469 C 29.316406 23.960938 29.289062 23.695312 29.234375 23.429688 C 29.179688 23.167969 29.101562 22.910156 29 22.664062 C 28.894531 22.414062 28.765625 22.179688 28.617188 21.957031 C 28.464844 21.730469 28.296875 21.523438 28.105469 21.335938 C 27.914062 21.144531 27.707031 20.976562 27.484375 20.828125 C 27.257812 20.675781 27.023438 20.550781 26.773438 20.449219 C 26.523438 20.34375 26.269531 20.269531 26.003906 20.214844 C 25.742188 20.164062 25.472656 20.136719 25.207031 20.136719 Z M 18.339844 5.746094 L 19.257812 6.171875 L 19.257812 10.066406 L 18.339844 10.066406 Z M 11.933594 10.066406 L 11.019531 10.066406 L 11.019531 6.171875 L 11.933594 5.746094 Z M 5.070312 27.457031 C 4.5 27.457031 3.964844 27.3125 3.472656 27.027344 C 3.632812 26.734375 3.859375 26.507812 4.144531 26.335938 C 4.429688 26.167969 4.742188 26.082031 5.074219 26.082031 C 5.40625 26.082031 5.71875 26.167969 6.003906 26.335938 C 6.289062 26.507812 6.515625 26.734375 6.675781 27.027344 C 6.179688 27.316406 5.644531 27.457031 5.070312 27.457031 Z M 7.390625 26.460938 C 7.265625 26.265625 7.121094 26.085938 6.949219 25.929688 C 6.78125 25.769531 6.597656 25.632812 6.394531 25.523438 C 6.191406 25.410156 5.976562 25.328125 5.753906 25.269531 C 5.527344 25.210938 5.300781 25.183594 5.070312 25.183594 C 4.839844 25.183594 4.609375 25.210938 4.386719 25.269531 C 4.160156 25.328125 3.949219 25.410156 3.746094 25.523438 C 3.542969 25.632812 3.355469 25.769531 3.1875 25.929688 C 3.019531 26.085938 2.875 26.265625 2.75 26.460938 C 2.460938 26.15625 2.238281 25.808594 2.085938 25.417969 C 1.933594 25.023438 1.859375 24.617188 1.867188 24.199219 C 1.875 23.777344 1.960938 23.375 2.125 22.988281 C 2.289062 22.601562 2.523438 22.261719 2.824219 21.96875 C 3.121094 21.671875 3.46875 21.445312 3.855469 21.285156 C 4.246094 21.128906 4.648438 21.046875 5.070312 21.046875 C 5.488281 21.046875 5.894531 21.128906 6.285156 21.285156 C 6.671875 21.445312 7.015625 21.671875 7.316406 21.96875 C 7.617188 22.261719 7.847656 22.601562 8.015625 22.988281 C 8.179688 23.375 8.265625 23.777344 8.273438 24.199219 C 8.28125 24.617188 8.207031 25.023438 8.054688 25.417969 C 7.902344 25.808594 7.679688 26.15625 7.390625 26.460938 Z M 23.375 16.472656 C 23.375 17.328125 23.078125 18.0625 22.492188 18.679688 C 22.367188 18.484375 22.222656 18.308594 22.050781 18.148438 C 21.882812 17.988281 21.699219 17.855469 21.496094 17.742188 C 21.292969 17.632812 21.078125 17.546875 20.855469 17.488281 C 20.628906 17.433594 20.402344 17.402344 20.171875 17.402344 C 19.941406 17.402344 19.710938 17.433594 19.488281 17.488281 C 19.261719 17.546875 19.050781 17.632812 18.847656 17.742188 C 18.644531 17.855469 18.457031 17.988281 18.289062 18.148438 C 18.121094 18.308594 17.976562 18.484375 17.851562 18.679688 C 17.671875 18.492188 17.515625 18.28125 17.386719 18.054688 C 17.257812 17.828125 17.15625 17.585938 17.085938 17.335938 C 17.015625 17.082031 16.976562 16.824219 16.96875 16.5625 C 16.960938 16.300781 16.984375 16.042969 17.042969 15.789062 C 17.097656 15.53125 17.183594 15.285156 17.300781 15.050781 C 17.414062 14.816406 17.558594 14.601562 17.726562 14.402344 C 17.894531 14.199219 18.085938 14.023438 18.300781 13.871094 C 18.511719 13.71875 18.738281 13.59375 18.984375 13.496094 C 19.226562 13.398438 19.476562 13.332031 19.738281 13.296875 C 19.996094 13.261719 20.257812 13.257812 20.515625 13.285156 C 20.777344 13.316406 21.03125 13.375 21.277344 13.464844 C 21.519531 13.554688 21.753906 13.671875 21.96875 13.820312 C 22.1875 13.96875 22.382812 14.136719 22.554688 14.332031 C 22.730469 14.527344 22.878906 14.742188 23.003906 14.972656 C 23.125 15.203125 23.21875 15.445312 23.28125 15.699219 C 23.34375 15.953125 23.375 16.210938 23.375 16.472656 Z M 14.222656 0.914062 L 16.050781 0.914062 L 16.050781 1.832031 L 14.222656 1.832031 Z M 12.847656 10.066406 L 12.847656 2.746094 L 17.425781 2.746094 L 17.425781 10.066406 L 16.511719 10.066406 L 16.511719 6.863281 C 16.511719 6.738281 16.464844 6.628906 16.375 6.539062 C 16.285156 6.453125 16.179688 6.40625 16.050781 6.40625 L 14.222656 6.40625 C 14.09375 6.40625 13.988281 6.453125 13.898438 6.539062 C 13.808594 6.628906 13.765625 6.738281 13.765625 6.863281 L 13.765625 10.066406 Z M 15.59375 7.320312 L 15.59375 10.066406 L 14.679688 10.066406 L 14.679688 7.320312 Z M 7.785156 18.679688 C 7.492188 18.375 7.273438 18.027344 7.121094 17.636719 C 6.964844 17.246094 6.894531 16.839844 6.902344 16.417969 C 6.90625 16 6.992188 15.59375 7.160156 15.210938 C 7.324219 14.824219 7.558594 14.484375 7.855469 14.1875 C 8.15625 13.894531 8.5 13.667969 8.890625 13.507812 C 9.277344 13.347656 9.683594 13.269531 10.101562 13.269531 C 10.523438 13.269531 10.929688 13.347656 11.316406 13.507812 C 11.707031 13.667969 12.050781 13.894531 12.351562 14.1875 C 12.648438 14.484375 12.882812 14.824219 13.046875 15.210938 C 13.214844 15.59375 13.300781 16 13.304688 16.417969 C 13.3125 16.839844 13.242188 17.246094 13.085938 17.636719 C 12.933594 18.027344 12.714844 18.375 12.421875 18.679688 C 12.300781 18.484375 12.152344 18.308594 11.984375 18.148438 C 11.816406 17.988281 11.628906 17.855469 11.425781 17.742188 C 11.226562 17.632812 11.011719 17.546875 10.785156 17.488281 C 10.5625 17.433594 10.335938 17.402344 10.101562 17.402344 C 9.871094 17.402344 9.644531 17.433594 9.417969 17.488281 C 9.195312 17.546875 8.980469 17.632812 8.777344 17.742188 C 8.578125 17.855469 8.390625 17.988281 8.222656 18.148438 C 8.054688 18.308594 7.90625 18.484375 7.785156 18.679688 Z M 8.507812 19.246094 C 8.667969 18.957031 8.890625 18.726562 9.179688 18.558594 C 9.464844 18.386719 9.773438 18.304688 10.109375 18.304688 C 10.441406 18.304688 10.75 18.386719 11.039062 18.558594 C 11.324219 18.726562 11.546875 18.957031 11.710938 19.246094 C 11.214844 19.535156 10.679688 19.679688 10.109375 19.679688 C 9.535156 19.679688 9 19.535156 8.507812 19.246094 Z M 15.136719 27.457031 C 14.566406 27.457031 14.035156 27.3125 13.539062 27.027344 C 13.703125 26.734375 13.925781 26.507812 14.210938 26.335938 C 14.5 26.167969 14.808594 26.082031 15.140625 26.082031 C 15.476562 26.082031 15.785156 26.167969 16.070312 26.335938 C 16.359375 26.507812 16.582031 26.734375 16.742188 27.027344 C 16.246094 27.316406 15.710938 27.457031 15.136719 27.457031 Z M 17.457031 26.460938 C 17.332031 26.265625 17.1875 26.085938 17.019531 25.929688 C 16.851562 25.769531 16.664062 25.632812 16.460938 25.523438 C 16.257812 25.410156 16.046875 25.328125 15.820312 25.269531 C 15.597656 25.210938 15.367188 25.183594 15.136719 25.183594 C 14.90625 25.183594 14.679688 25.210938 14.453125 25.269531 C 14.230469 25.328125 14.015625 25.410156 13.8125 25.523438 C 13.609375 25.632812 13.425781 25.769531 13.253906 25.929688 C 13.085938 26.085938 12.941406 26.265625 12.816406 26.460938 C 12.527344 26.15625 12.304688 25.808594 12.152344 25.417969 C 12 25.023438 11.925781 24.617188 11.933594 24.199219 C 11.941406 23.777344 12.027344 23.375 12.191406 22.988281 C 12.359375 22.601562 12.589844 22.261719 12.890625 21.96875 C 13.191406 21.671875 13.535156 21.445312 13.921875 21.285156 C 14.3125 21.128906 14.71875 21.046875 15.136719 21.046875 C 15.558594 21.046875 15.960938 21.128906 16.351562 21.285156 C 16.738281 21.445312 17.085938 21.671875 17.382812 21.96875 C 17.683594 22.261719 17.914062 22.601562 18.082031 22.988281 C 18.246094 23.375 18.332031 23.777344 18.339844 24.199219 C 18.347656 24.617188 18.273438 25.023438 18.121094 25.417969 C 17.96875 25.808594 17.746094 26.15625 17.457031 26.460938 Z M 18.886719 22.550781 C 18.722656 22.191406 18.511719 21.863281 18.25 21.5625 C 17.992188 21.265625 17.699219 21.007812 17.367188 20.796875 C 17.035156 20.582031 16.675781 20.417969 16.296875 20.308594 C 15.917969 20.195312 15.53125 20.140625 15.136719 20.140625 C 14.742188 20.140625 14.355469 20.195312 13.976562 20.308594 C 13.597656 20.417969 13.242188 20.582031 12.910156 20.796875 C 12.578125 21.007812 12.28125 21.265625 12.023438 21.5625 C 11.765625 21.863281 11.554688 22.191406 11.390625 22.550781 L 10.722656 20.542969 C 11.167969 20.472656 11.59375 20.335938 11.992188 20.125 C 12.394531 19.914062 12.75 19.648438 13.066406 19.320312 C 13.378906 18.992188 13.628906 18.625 13.820312 18.214844 C 14.011719 17.804688 14.132812 17.375 14.183594 16.925781 C 14.234375 16.476562 14.207031 16.03125 14.113281 15.589844 C 14.015625 15.144531 13.847656 14.730469 13.613281 14.34375 C 13.382812 13.957031 13.089844 13.617188 12.746094 13.324219 C 12.398438 13.035156 12.015625 12.804688 11.59375 12.640625 L 15.136719 11.027344 L 18.679688 12.640625 C 18.257812 12.804688 17.875 13.035156 17.527344 13.324219 C 17.183594 13.617188 16.894531 13.957031 16.660156 14.34375 C 16.425781 14.730469 16.261719 15.144531 16.164062 15.589844 C 16.066406 16.03125 16.042969 16.476562 16.089844 16.925781 C 16.140625 17.375 16.261719 17.804688 16.453125 18.214844 C 16.644531 18.625 16.898438 18.992188 17.210938 19.320312 C 17.523438 19.648438 17.878906 19.914062 18.28125 20.125 C 18.683594 20.335938 19.105469 20.472656 19.554688 20.542969 Z M 18.574219 19.246094 C 18.734375 18.957031 18.960938 18.726562 19.246094 18.558594 C 19.53125 18.386719 19.84375 18.304688 20.175781 18.304688 C 20.507812 18.304688 20.820312 18.386719 21.105469 18.558594 C 21.390625 18.726562 21.617188 18.957031 21.777344 19.246094 C 21.28125 19.535156 20.75 19.679688 20.175781 19.679688 C 19.601562 19.679688 19.070312 19.535156 18.574219 19.246094 Z M 25.207031 27.457031 C 24.632812 27.457031 24.101562 27.3125 23.609375 27.027344 C 23.769531 26.734375 23.992188 26.507812 24.28125 26.335938 C 24.566406 26.167969 24.875 26.082031 25.210938 26.082031 C 25.542969 26.082031 25.851562 26.167969 26.140625 26.335938 C 26.425781 26.507812 26.648438 26.734375 26.8125 27.027344 C 26.316406 27.316406 25.777344 27.457031 25.207031 27.457031 Z M 27.523438 26.460938 C 27.402344 26.265625 27.253906 26.085938 27.085938 25.929688 C 26.917969 25.769531 26.730469 25.632812 26.53125 25.523438 C 26.328125 25.410156 26.113281 25.328125 25.890625 25.269531 C 25.664062 25.210938 25.4375 25.183594 25.207031 25.183594 C 24.972656 25.183594 24.746094 25.210938 24.519531 25.269531 C 24.296875 25.328125 24.082031 25.410156 23.878906 25.523438 C 23.679688 25.632812 23.492188 25.769531 23.324219 25.929688 C 23.15625 26.085938 23.007812 26.265625 22.886719 26.460938 C 22.59375 26.15625 22.375 25.808594 22.222656 25.417969 C 22.066406 25.023438 21.996094 24.617188 22.003906 24.199219 C 22.007812 23.777344 22.09375 23.375 22.261719 22.988281 C 22.425781 22.601562 22.660156 22.261719 22.957031 21.96875 C 23.257812 21.671875 23.601562 21.445312 23.992188 21.285156 C 24.378906 21.128906 24.785156 21.046875 25.207031 21.046875 C 25.625 21.046875 26.03125 21.128906 26.417969 21.285156 C 26.808594 21.445312 27.152344 21.671875 27.453125 21.96875 C 27.75 22.261719 27.984375 22.601562 28.148438 22.988281 C 28.316406 23.375 28.402344 23.777344 28.40625 24.199219 C 28.414062 24.617188 28.34375 25.023438 28.1875 25.417969 C 28.035156 25.808594 27.816406 26.15625 27.523438 26.460938 Z M 27.523438 26.460938 " fill-opacity="1" fill-rule="nonzero"/></g><path fill="#bfa575" d="M 25.207031 21.964844 C 25.023438 21.964844 24.847656 22 24.679688 22.070312 C 24.511719 22.140625 24.363281 22.238281 24.234375 22.367188 C 24.105469 22.496094 24.007812 22.644531 23.9375 22.8125 C 23.867188 22.980469 23.832031 23.15625 23.832031 23.339844 C 23.832031 23.519531 23.867188 23.695312 23.9375 23.863281 C 24.007812 24.03125 24.105469 24.179688 24.234375 24.308594 C 24.363281 24.4375 24.511719 24.539062 24.679688 24.605469 C 24.847656 24.675781 25.023438 24.710938 25.207031 24.710938 C 25.386719 24.710938 25.5625 24.675781 25.730469 24.605469 C 25.898438 24.539062 26.046875 24.4375 26.175781 24.308594 C 26.304688 24.179688 26.402344 24.03125 26.472656 23.863281 C 26.542969 23.695312 26.578125 23.519531 26.578125 23.339844 C 26.578125 23.15625 26.542969 22.980469 26.472656 22.8125 C 26.402344 22.644531 26.304688 22.496094 26.175781 22.367188 C 26.046875 22.238281 25.898438 22.140625 25.730469 22.070312 C 25.5625 22 25.386719 21.964844 25.207031 21.964844 Z M 25.207031 23.796875 C 25.078125 23.796875 24.972656 23.75 24.882812 23.664062 C 24.792969 23.574219 24.746094 23.464844 24.746094 23.339844 C 24.746094 23.210938 24.792969 23.105469 24.882812 23.015625 C 24.972656 22.925781 25.078125 22.882812 25.207031 22.882812 C 25.332031 22.882812 25.4375 22.925781 25.527344 23.015625 C 25.617188 23.105469 25.664062 23.210938 25.664062 23.339844 C 25.664062 23.464844 25.617188 23.574219 25.527344 23.664062 C 25.4375 23.75 25.332031 23.796875 25.207031 23.796875 Z M 25.207031 23.796875 " fill-opacity="1" fill-rule="nonzero"/><path fill="#bfa575" d="M 20.171875 16.933594 C 20.351562 16.933594 20.527344 16.898438 20.695312 16.828125 C 20.863281 16.757812 21.011719 16.660156 21.140625 16.53125 C 21.269531 16.402344 21.371094 16.253906 21.441406 16.085938 C 21.507812 15.917969 21.542969 15.742188 21.542969 15.558594 C 21.542969 15.378906 21.507812 15.203125 21.441406 15.035156 C 21.371094 14.867188 21.269531 14.71875 21.140625 14.589844 C 21.011719 14.460938 20.863281 14.359375 20.695312 14.289062 C 20.527344 14.222656 20.351562 14.1875 20.171875 14.1875 C 19.988281 14.1875 19.8125 14.222656 19.644531 14.289062 C 19.476562 14.359375 19.328125 14.460938 19.199219 14.589844 C 19.070312 14.71875 18.972656 14.867188 18.902344 15.035156 C 18.832031 15.203125 18.796875 15.378906 18.796875 15.558594 C 18.796875 15.742188 18.832031 15.917969 18.902344 16.085938 C 18.972656 16.253906 19.070312 16.402344 19.199219 16.53125 C 19.328125 16.660156 19.476562 16.757812 19.644531 16.828125 C 19.8125 16.898438 19.988281 16.933594 20.171875 16.933594 Z M 20.171875 15.101562 C 20.296875 15.101562 20.40625 15.144531 20.496094 15.234375 C 20.585938 15.324219 20.628906 15.433594 20.628906 15.558594 C 20.628906 15.6875 20.585938 15.792969 20.496094 15.882812 C 20.40625 15.972656 20.296875 16.015625 20.171875 16.015625 C 20.042969 16.015625 19.9375 15.972656 19.847656 15.882812 C 19.757812 15.792969 19.714844 15.6875 19.714844 15.558594 C 19.714844 15.433594 19.757812 15.324219 19.847656 15.234375 C 19.9375 15.144531 20.042969 15.101562 20.171875 15.101562 Z M 20.171875 15.101562 " fill-opacity="1" fill-rule="nonzero"/><path fill="#bfa575" d="M 11.476562 15.558594 C 11.476562 15.378906 11.441406 15.203125 11.371094 15.035156 C 11.300781 14.867188 11.203125 14.71875 11.074219 14.589844 C 10.945312 14.460938 10.796875 14.359375 10.628906 14.289062 C 10.460938 14.222656 10.285156 14.1875 10.101562 14.1875 C 9.921875 14.1875 9.746094 14.222656 9.578125 14.289062 C 9.410156 14.359375 9.261719 14.460938 9.132812 14.589844 C 9.003906 14.71875 8.90625 14.867188 8.835938 15.035156 C 8.765625 15.203125 8.730469 15.378906 8.730469 15.558594 C 8.730469 15.742188 8.765625 15.917969 8.835938 16.085938 C 8.90625 16.253906 9.003906 16.402344 9.132812 16.53125 C 9.261719 16.660156 9.410156 16.757812 9.578125 16.828125 C 9.746094 16.898438 9.921875 16.933594 10.101562 16.933594 C 10.285156 16.933594 10.460938 16.898438 10.628906 16.828125 C 10.796875 16.757812 10.945312 16.660156 11.074219 16.53125 C 11.203125 16.402344 11.300781 16.253906 11.371094 16.085938 C 11.441406 15.917969 11.476562 15.742188 11.476562 15.558594 Z M 9.644531 15.558594 C 9.644531 15.433594 9.691406 15.324219 9.78125 15.234375 C 9.871094 15.144531 9.976562 15.101562 10.101562 15.101562 C 10.230469 15.101562 10.335938 15.144531 10.425781 15.234375 C 10.515625 15.324219 10.5625 15.433594 10.5625 15.558594 C 10.5625 15.6875 10.515625 15.792969 10.425781 15.882812 C 10.335938 15.972656 10.230469 16.015625 10.101562 16.015625 C 9.976562 16.015625 9.871094 15.972656 9.78125 15.882812 C 9.691406 15.792969 9.644531 15.6875 9.644531 15.558594 Z M 9.644531 15.558594 " fill-opacity="1" fill-rule="nonzero"/></svg>