<svg xmlns="http://www.w3.org/2000/svg" xmlns:xlink="http://www.w3.org/1999/xlink" width="40" zoomAndPan="magnify" viewBox="0 0 30 30.000001" height="40" preserveAspectRatio="xMidYMid meet" version="1.0"><defs><clipPath id="43318ef739"><path d="M 0.484375 0 L 29.515625 0 L 29.515625 29.03125 L 0.484375 29.03125 Z M 0.484375 0 " clip-rule="nonzero"/></clipPath></defs><g clip-path="url(#43318ef739)"><path fill="#bfa575" d="M 2.195312 23.8125 C 1.25 23.8125 0.484375 23.042969 0.484375 22.09375 L 0.484375 17.261719 C 0.484375 16.316406 1.253906 15.546875 2.195312 15.546875 C 2.421875 15.550781 2.640625 15.59375 2.851562 15.679688 C 3.0625 15.769531 3.246094 15.890625 3.40625 16.050781 C 3.566406 16.214844 3.691406 16.398438 3.777344 16.609375 C 3.863281 16.816406 3.910156 17.035156 3.910156 17.261719 L 3.910156 22.097656 C 3.910156 23.042969 3.140625 23.8125 2.195312 23.8125 Z M 7.707031 25.664062 C 6.761719 25.664062 5.996094 24.894531 5.996094 23.949219 L 5.996094 15.414062 C 5.996094 14.464844 6.761719 13.699219 7.707031 13.699219 C 8.652344 13.699219 9.417969 14.464844 9.417969 15.414062 L 9.417969 23.949219 C 9.417969 24.898438 8.652344 25.664062 7.707031 25.664062 Z M 13.21875 27.476562 C 12.273438 27.476562 11.503906 26.707031 11.503906 25.761719 L 11.503906 13.59375 C 11.503906 12.644531 12.273438 11.878906 13.21875 11.878906 C 14.160156 11.878906 14.929688 12.644531 14.929688 13.59375 L 14.929688 25.757812 C 14.929688 26.707031 14.164062 27.472656 13.21875 27.472656 Z M 27.664062 7.601562 L 3.765625 0.4375 C 2.59375 0.0742188 1.535156 0.804688 1.535156 1.941406 L 1.535156 13.898438 C 1.753906 13.855469 1.972656 13.832031 2.195312 13.832031 C 2.421875 13.832031 2.640625 13.855469 2.859375 13.898438 L 2.859375 1.949219 C 2.859375 1.871094 2.859375 1.683594 3.152344 1.683594 C 3.234375 1.683594 3.3125 1.695312 3.386719 1.71875 L 27.289062 8.882812 C 27.808594 9.039062 28.191406 9.570312 28.191406 9.9375 L 28.191406 25.265625 C 28.191406 25.351562 28.191406 25.53125 27.898438 25.53125 C 27.820312 25.53125 27.742188 25.515625 27.667969 25.492188 L 22.152344 23.84375 L 22.152344 25.226562 L 27.273438 26.765625 C 27.472656 26.828125 27.679688 26.859375 27.886719 26.859375 C 28.101562 26.871094 28.3125 26.835938 28.511719 26.757812 C 28.714844 26.679688 28.890625 26.566406 29.046875 26.414062 C 29.199219 26.261719 29.316406 26.085938 29.394531 25.886719 C 29.476562 25.6875 29.511719 25.476562 29.503906 25.261719 L 29.503906 9.921875 C 29.503906 8.929688 28.691406 7.910156 27.652344 7.597656 Z M 18.726562 29.378906 C 17.78125 29.378906 17.015625 28.609375 17.015625 27.664062 L 17.015625 11.695312 C 17.015625 10.746094 17.785156 9.976562 18.726562 9.976562 C 19.671875 9.976562 20.441406 10.746094 20.441406 11.695312 L 20.441406 27.675781 C 20.441406 28.625 19.675781 29.390625 18.726562 29.390625 Z M 18.726562 29.378906 " fill-opacity="1" fill-rule="nonzero"/></g></svg>