<svg xmlns="http://www.w3.org/2000/svg" xmlns:xlink="http://www.w3.org/1999/xlink" width="40" zoomAndPan="magnify" viewBox="0 0 30 30.000001" height="40" preserveAspectRatio="xMidYMid meet" version="1.0"><defs><clipPath id="518d299f48"><path d="M 0.484375 3.140625 L 29.515625 3.140625 L 29.515625 25.640625 L 0.484375 25.640625 Z M 0.484375 3.140625 " clip-rule="nonzero"/></clipPath></defs><g clip-path="url(#518d299f48)"><path fill="#bfa575" d="M 29.050781 17.652344 L 25.839844 17.652344 L 25.839844 14.03125 C 25.839844 13.78125 25.636719 13.578125 25.386719 13.578125 L 15.453125 13.578125 L 15.453125 10.410156 L 20.800781 10.410156 C 21.050781 10.410156 21.253906 10.207031 21.253906 9.957031 L 21.253906 3.59375 C 21.253906 3.34375 21.050781 3.140625 20.800781 3.140625 L 9.191406 3.140625 C 8.941406 3.140625 8.738281 3.34375 8.738281 3.59375 L 8.738281 9.953125 C 8.738281 10.203125 8.941406 10.40625 9.191406 10.40625 L 14.542969 10.40625 L 14.542969 13.574219 L 4.621094 13.574219 C 4.371094 13.574219 4.167969 13.777344 4.167969 14.023438 L 4.167969 17.644531 L 0.949219 17.644531 C 0.699219 17.644531 0.496094 17.847656 0.496094 18.097656 L 0.496094 25.433594 C 0.496094 25.679688 0.699219 25.882812 0.949219 25.882812 L 8.28125 25.882812 C 8.53125 25.882812 8.734375 25.679688 8.734375 25.433594 L 8.734375 18.105469 C 8.734375 17.855469 8.53125 17.652344 8.28125 17.652344 L 5.074219 17.652344 L 5.074219 14.484375 L 14.546875 14.484375 L 14.546875 17.652344 L 11.332031 17.652344 C 11.082031 17.652344 10.878906 17.855469 10.878906 18.105469 L 10.878906 25.4375 C 10.878906 25.6875 11.082031 25.890625 11.332031 25.890625 L 18.667969 25.890625 C 18.917969 25.890625 19.121094 25.6875 19.121094 25.4375 L 19.121094 18.105469 C 19.121094 17.855469 18.917969 17.652344 18.667969 17.652344 L 15.453125 17.652344 L 15.453125 14.484375 L 24.925781 14.484375 L 24.925781 17.652344 L 21.710938 17.652344 C 21.464844 17.652344 21.261719 17.855469 21.261719 18.105469 L 21.261719 25.4375 C 21.261719 25.6875 21.464844 25.890625 21.710938 25.890625 L 29.046875 25.890625 C 29.296875 25.890625 29.5 25.6875 29.5 25.4375 L 29.5 18.105469 C 29.503906 17.855469 29.300781 17.652344 29.050781 17.652344 Z M 9.652344 4.050781 L 20.355469 4.050781 L 20.355469 9.5 L 9.652344 9.5 Z M 7.828125 24.984375 L 1.40625 24.984375 L 1.40625 18.5625 L 7.835938 18.5625 L 7.835938 24.984375 Z M 18.214844 24.984375 L 11.785156 24.984375 L 11.785156 18.5625 L 18.214844 18.5625 Z M 28.59375 24.984375 L 22.171875 24.984375 L 22.171875 18.5625 L 28.601562 18.5625 L 28.601562 24.984375 Z M 28.59375 24.984375 " fill-opacity="1" fill-rule="nonzero"/></g></svg>