<svg xmlns="http://www.w3.org/2000/svg" xmlns:xlink="http://www.w3.org/1999/xlink" width="40" zoomAndPan="magnify" viewBox="0 0 30 30.000001" height="40" preserveAspectRatio="xMidYMid meet" version="1.0"><defs><clipPath id="bfff15a8d4"><path d="M 3 25 L 7 25 L 7 29.03125 L 3 29.03125 Z M 3 25 " clip-rule="nonzero"/></clipPath><clipPath id="0e9026dba5"><path d="M 8 25 L 12 25 L 12 29.03125 L 8 29.03125 Z M 8 25 " clip-rule="nonzero"/></clipPath><clipPath id="fd5cdae2d3"><path d="M 18 25 L 22 25 L 22 29.03125 L 18 29.03125 Z M 18 25 " clip-rule="nonzero"/></clipPath><clipPath id="bbc9ac58fd"><path d="M 23 25 L 27 25 L 27 29.03125 L 23 29.03125 Z M 23 25 " clip-rule="nonzero"/></clipPath><clipPath id="61e6ab256b"><path d="M 0.484375 14 L 2 14 L 2 15 L 0.484375 15 Z M 0.484375 14 " clip-rule="nonzero"/></clipPath><clipPath id="40d2813d87"><path d="M 28 14 L 29.515625 14 L 29.515625 15 L 28 15 Z M 28 14 " clip-rule="nonzero"/></clipPath><clipPath id="5ef22c2a70"><path d="M 14 28 L 16 28 L 16 29.03125 L 14 29.03125 Z M 14 28 " clip-rule="nonzero"/></clipPath></defs><path fill="#bfa575" d="M 4.339844 7.03125 C 4.589844 7.03125 4.792969 6.828125 4.792969 6.578125 L 4.792969 5.421875 C 4.792969 4.808594 5.316406 4.308594 5.949219 4.308594 L 6.425781 4.308594 C 6.019531 4.128906 5.65625 3.832031 5.359375 3.492188 C 4.5 3.742188 3.886719 4.511719 3.886719 5.421875 L 3.886719 6.578125 C 3.886719 6.828125 4.089844 7.03125 4.339844 7.03125 Z M 4.339844 7.03125 " fill-opacity="1" fill-rule="nonzero"/><path fill="#bfa575" d="M 9.082031 4.308594 C 9.714844 4.308594 10.238281 4.808594 10.238281 5.421875 L 10.238281 6.578125 C 10.238281 6.828125 10.441406 7.03125 10.691406 7.03125 C 10.941406 7.03125 11.144531 6.828125 11.144531 6.578125 L 11.144531 5.421875 C 11.144531 4.511719 10.507812 3.742188 9.667969 3.492188 C 9.398438 3.855469 9.035156 4.128906 8.605469 4.308594 Z M 9.082031 4.308594 " fill-opacity="1" fill-rule="nonzero"/><path fill="#bfa575" d="M 7.515625 3.628906 C 8.511719 3.628906 9.328125 2.8125 9.328125 1.816406 C 9.328125 0.816406 8.511719 0 7.515625 0 C 6.515625 0 5.699219 0.816406 5.699219 1.816406 C 5.699219 2.8125 6.515625 3.628906 7.515625 3.628906 Z M 7.515625 0.90625 C 8.015625 0.90625 8.421875 1.316406 8.421875 1.816406 C 8.421875 2.3125 8.015625 2.722656 7.515625 2.722656 C 7.015625 2.722656 6.609375 2.3125 6.609375 1.816406 C 6.609375 1.316406 7.015625 0.90625 7.515625 0.90625 Z M 7.515625 0.90625 " fill-opacity="1" fill-rule="nonzero"/><path fill="#bfa575" d="M 4.339844 13.15625 C 4.589844 13.15625 4.792969 12.949219 4.792969 12.703125 L 4.792969 11.542969 C 4.792969 10.933594 5.316406 10.433594 5.949219 10.433594 L 6.425781 10.433594 C 6.019531 10.253906 5.65625 9.957031 5.359375 9.617188 C 4.5 9.867188 3.886719 10.636719 3.886719 11.542969 L 3.886719 12.703125 C 3.886719 12.949219 4.089844 13.15625 4.339844 13.15625 Z M 4.339844 13.15625 " fill-opacity="1" fill-rule="nonzero"/><path fill="#bfa575" d="M 10.691406 13.15625 C 10.941406 13.15625 11.144531 12.949219 11.144531 12.703125 L 11.144531 11.542969 C 11.144531 10.636719 10.507812 9.867188 9.667969 9.617188 C 9.398438 9.980469 9.035156 10.253906 8.605469 10.433594 L 9.082031 10.433594 C 9.714844 10.433594 10.238281 10.933594 10.238281 11.542969 L 10.238281 12.703125 C 10.238281 12.949219 10.441406 13.15625 10.691406 13.15625 Z M 10.691406 13.15625 " fill-opacity="1" fill-rule="nonzero"/><path fill="#bfa575" d="M 9.328125 7.9375 C 9.328125 6.941406 8.511719 6.125 7.515625 6.125 C 6.515625 6.125 5.699219 6.941406 5.699219 7.9375 C 5.699219 8.9375 6.515625 9.753906 7.515625 9.753906 C 8.511719 9.753906 9.328125 8.9375 9.328125 7.9375 Z M 7.515625 8.847656 C 7.015625 8.847656 6.609375 8.4375 6.609375 7.9375 C 6.609375 7.441406 7.015625 7.03125 7.515625 7.03125 C 8.015625 7.03125 8.421875 7.441406 8.421875 7.9375 C 8.421875 8.4375 8.015625 8.847656 7.515625 8.847656 Z M 7.515625 8.847656 " fill-opacity="1" fill-rule="nonzero"/><path fill="#bfa575" d="M 9.667969 19.371094 C 9.398438 19.734375 9.035156 20.003906 8.605469 20.1875 L 9.082031 20.1875 C 9.714844 20.1875 10.238281 20.683594 10.238281 21.296875 L 10.238281 22.453125 C 10.238281 22.703125 10.441406 22.910156 10.691406 22.910156 C 10.941406 22.910156 11.144531 22.703125 11.144531 22.453125 L 11.144531 21.296875 C 11.144531 20.367188 10.507812 19.597656 9.667969 19.371094 Z M 9.667969 19.371094 " fill-opacity="1" fill-rule="nonzero"/><path fill="#bfa575" d="M 4.339844 22.910156 C 4.589844 22.910156 4.792969 22.703125 4.792969 22.453125 L 4.792969 21.296875 C 4.792969 20.683594 5.316406 20.1875 5.949219 20.1875 L 6.425781 20.1875 C 6.019531 20.003906 5.65625 19.710938 5.359375 19.371094 C 4.5 19.621094 3.886719 20.390625 3.886719 21.296875 L 3.886719 22.453125 C 3.886719 22.703125 4.089844 22.910156 4.339844 22.910156 Z M 4.339844 22.910156 " fill-opacity="1" fill-rule="nonzero"/><path fill="#bfa575" d="M 7.515625 19.507812 C 8.511719 19.507812 9.328125 18.691406 9.328125 17.691406 C 9.328125 16.695312 8.511719 15.878906 7.515625 15.878906 C 6.515625 15.878906 5.699219 16.695312 5.699219 17.691406 C 5.699219 18.691406 6.515625 19.507812 7.515625 19.507812 Z M 7.515625 16.785156 C 8.015625 16.785156 8.421875 17.191406 8.421875 17.691406 C 8.421875 18.191406 8.015625 18.597656 7.515625 18.597656 C 7.015625 18.597656 6.609375 18.191406 6.609375 17.691406 C 6.609375 17.191406 7.015625 16.785156 7.515625 16.785156 Z M 7.515625 16.785156 " fill-opacity="1" fill-rule="nonzero"/><g clip-path="url(#bfff15a8d4)"><path fill="#bfa575" d="M 5.359375 25.492188 C 4.5 25.742188 3.886719 26.515625 3.886719 27.421875 L 3.886719 28.578125 C 3.886719 28.828125 4.089844 29.03125 4.339844 29.03125 C 4.589844 29.03125 4.792969 28.828125 4.792969 28.578125 L 4.792969 27.421875 C 4.792969 26.808594 5.316406 26.308594 5.949219 26.308594 L 6.425781 26.308594 C 6.019531 26.128906 5.65625 25.835938 5.359375 25.492188 Z M 5.359375 25.492188 " fill-opacity="1" fill-rule="nonzero"/></g><g clip-path="url(#0e9026dba5)"><path fill="#bfa575" d="M 9.667969 25.492188 C 9.398438 25.855469 9.035156 26.128906 8.605469 26.308594 L 9.082031 26.308594 C 9.714844 26.308594 10.238281 26.808594 10.238281 27.421875 L 10.238281 28.578125 C 10.238281 28.828125 10.441406 29.03125 10.691406 29.03125 C 10.941406 29.03125 11.144531 28.828125 11.144531 28.578125 L 11.144531 27.421875 C 11.144531 26.492188 10.507812 25.722656 9.667969 25.492188 Z M 9.667969 25.492188 " fill-opacity="1" fill-rule="nonzero"/></g><path fill="#bfa575" d="M 9.328125 23.816406 C 9.328125 22.816406 8.511719 22 7.515625 22 C 6.515625 22 5.699219 22.816406 5.699219 23.816406 C 5.699219 24.8125 6.515625 25.628906 7.515625 25.628906 C 8.511719 25.628906 9.328125 24.8125 9.328125 23.816406 Z M 7.515625 24.722656 C 7.015625 24.722656 6.609375 24.316406 6.609375 23.816406 C 6.609375 23.316406 7.015625 22.910156 7.515625 22.910156 C 8.015625 22.910156 8.421875 23.316406 8.421875 23.816406 C 8.421875 24.316406 8.015625 24.722656 7.515625 24.722656 Z M 7.515625 24.722656 " fill-opacity="1" fill-rule="nonzero"/><path fill="#bfa575" d="M 19.308594 7.03125 C 19.558594 7.03125 19.761719 6.828125 19.761719 6.578125 L 19.761719 5.421875 C 19.761719 4.808594 20.285156 4.308594 20.917969 4.308594 L 21.394531 4.308594 C 20.988281 4.128906 20.625 3.832031 20.332031 3.492188 C 19.46875 3.742188 18.855469 4.511719 18.855469 5.421875 L 18.855469 6.578125 C 18.855469 6.828125 19.058594 7.03125 19.308594 7.03125 Z M 19.308594 7.03125 " fill-opacity="1" fill-rule="nonzero"/><path fill="#bfa575" d="M 24.640625 3.492188 C 24.367188 3.855469 24.003906 4.128906 23.574219 4.308594 L 24.050781 4.308594 C 24.683594 4.308594 25.207031 4.808594 25.207031 5.421875 L 25.207031 6.578125 C 25.207031 6.828125 25.410156 7.03125 25.660156 7.03125 C 25.910156 7.03125 26.113281 6.828125 26.113281 6.578125 L 26.113281 5.421875 C 26.113281 4.492188 25.480469 3.71875 24.640625 3.492188 Z M 24.640625 3.492188 " fill-opacity="1" fill-rule="nonzero"/><path fill="#bfa575" d="M 22.484375 3.628906 C 23.484375 3.628906 24.300781 2.8125 24.300781 1.816406 C 24.300781 0.816406 23.484375 0 22.484375 0 C 21.488281 0 20.671875 0.816406 20.671875 1.816406 C 20.671875 2.8125 21.488281 3.628906 22.484375 3.628906 Z M 22.484375 0.90625 C 22.984375 0.90625 23.390625 1.316406 23.390625 1.816406 C 23.390625 2.3125 22.984375 2.722656 22.484375 2.722656 C 21.984375 2.722656 21.578125 2.3125 21.578125 1.816406 C 21.578125 1.316406 21.984375 0.90625 22.484375 0.90625 Z M 22.484375 0.90625 " fill-opacity="1" fill-rule="nonzero"/><path fill="#bfa575" d="M 19.308594 13.15625 C 19.558594 13.15625 19.761719 12.949219 19.761719 12.703125 L 19.761719 11.542969 C 19.761719 10.933594 20.285156 10.433594 20.917969 10.433594 L 21.394531 10.433594 C 20.988281 10.253906 20.625 9.957031 20.332031 9.617188 C 19.46875 9.867188 18.855469 10.636719 18.855469 11.542969 L 18.855469 12.703125 C 18.855469 12.949219 19.058594 13.15625 19.308594 13.15625 Z M 19.308594 13.15625 " fill-opacity="1" fill-rule="nonzero"/><path fill="#bfa575" d="M 24.640625 9.617188 C 24.367188 9.980469 24.003906 10.253906 23.574219 10.433594 L 24.050781 10.433594 C 24.683594 10.433594 25.207031 10.933594 25.207031 11.542969 L 25.207031 12.703125 C 25.207031 12.949219 25.410156 13.15625 25.660156 13.15625 C 25.910156 13.15625 26.113281 12.949219 26.113281 12.703125 L 26.113281 11.542969 C 26.113281 10.613281 25.480469 9.84375 24.640625 9.617188 Z M 24.640625 9.617188 " fill-opacity="1" fill-rule="nonzero"/><path fill="#bfa575" d="M 24.300781 7.9375 C 24.300781 6.941406 23.484375 6.125 22.484375 6.125 C 21.488281 6.125 20.671875 6.941406 20.671875 7.9375 C 20.671875 8.9375 21.488281 9.753906 22.484375 9.753906 C 23.484375 9.753906 24.300781 8.9375 24.300781 7.9375 Z M 22.484375 8.847656 C 21.984375 8.847656 21.578125 8.4375 21.578125 7.9375 C 21.578125 7.441406 21.984375 7.03125 22.484375 7.03125 C 22.984375 7.03125 23.390625 7.441406 23.390625 7.9375 C 23.390625 8.4375 22.984375 8.847656 22.484375 8.847656 Z M 22.484375 8.847656 " fill-opacity="1" fill-rule="nonzero"/><path fill="#bfa575" d="M 24.640625 19.371094 C 24.367188 19.734375 24.003906 20.003906 23.574219 20.1875 L 24.050781 20.1875 C 24.683594 20.1875 25.207031 20.683594 25.207031 21.296875 L 25.207031 22.453125 C 25.207031 22.703125 25.410156 22.910156 25.660156 22.910156 C 25.910156 22.910156 26.113281 22.703125 26.113281 22.453125 L 26.113281 21.296875 C 26.113281 20.367188 25.480469 19.597656 24.640625 19.371094 Z M 24.640625 19.371094 " fill-opacity="1" fill-rule="nonzero"/><path fill="#bfa575" d="M 18.855469 21.296875 L 18.855469 22.453125 C 18.855469 22.703125 19.058594 22.910156 19.308594 22.910156 C 19.558594 22.910156 19.761719 22.703125 19.761719 22.453125 L 19.761719 21.296875 C 19.761719 20.683594 20.285156 20.1875 20.917969 20.1875 L 21.394531 20.1875 C 20.988281 20.003906 20.625 19.710938 20.332031 19.371094 C 19.492188 19.597656 18.855469 20.367188 18.855469 21.296875 Z M 18.855469 21.296875 " fill-opacity="1" fill-rule="nonzero"/><path fill="#bfa575" d="M 24.300781 17.691406 C 24.300781 16.695312 23.484375 15.878906 22.484375 15.878906 C 21.488281 15.878906 20.671875 16.695312 20.671875 17.691406 C 20.671875 18.691406 21.488281 19.507812 22.484375 19.507812 C 23.484375 19.507812 24.300781 18.691406 24.300781 17.691406 Z M 21.578125 17.691406 C 21.578125 17.191406 21.984375 16.785156 22.484375 16.785156 C 22.984375 16.785156 23.390625 17.191406 23.390625 17.691406 C 23.390625 18.191406 22.984375 18.597656 22.484375 18.597656 C 21.984375 18.597656 21.578125 18.191406 21.578125 17.691406 Z M 21.578125 17.691406 " fill-opacity="1" fill-rule="nonzero"/><g clip-path="url(#fd5cdae2d3)"><path fill="#bfa575" d="M 20.332031 25.492188 C 19.46875 25.742188 18.855469 26.515625 18.855469 27.421875 L 18.855469 28.578125 C 18.855469 28.828125 19.058594 29.03125 19.308594 29.03125 C 19.558594 29.03125 19.761719 28.828125 19.761719 28.578125 L 19.761719 27.421875 C 19.761719 26.808594 20.285156 26.308594 20.917969 26.308594 L 21.394531 26.308594 C 20.988281 26.128906 20.625 25.835938 20.332031 25.492188 Z M 20.332031 25.492188 " fill-opacity="1" fill-rule="nonzero"/></g><g clip-path="url(#bbc9ac58fd)"><path fill="#bfa575" d="M 24.640625 25.492188 C 24.367188 25.855469 24.003906 26.128906 23.574219 26.308594 L 24.050781 26.308594 C 24.683594 26.308594 25.207031 26.808594 25.207031 27.421875 L 25.207031 28.578125 C 25.207031 28.828125 25.410156 29.03125 25.660156 29.03125 C 25.910156 29.03125 26.113281 28.828125 26.113281 28.578125 L 26.113281 27.421875 C 26.113281 26.492188 25.480469 25.722656 24.640625 25.492188 Z M 24.640625 25.492188 " fill-opacity="1" fill-rule="nonzero"/></g><path fill="#bfa575" d="M 24.300781 23.816406 C 24.300781 22.816406 23.484375 22 22.484375 22 C 21.488281 22 20.671875 22.816406 20.671875 23.816406 C 20.671875 24.8125 21.488281 25.628906 22.484375 25.628906 C 23.484375 25.628906 24.300781 24.8125 24.300781 23.816406 Z M 22.484375 24.722656 C 21.984375 24.722656 21.578125 24.316406 21.578125 23.816406 C 21.578125 23.316406 21.984375 22.910156 22.484375 22.910156 C 22.984375 22.910156 23.390625 23.316406 23.390625 23.816406 C 23.390625 24.316406 22.984375 24.722656 22.484375 24.722656 Z M 22.484375 24.722656 " fill-opacity="1" fill-rule="nonzero"/><path fill="#bfa575" d="M 15 15.832031 C 14.75 15.832031 14.546875 16.035156 14.546875 16.285156 C 14.546875 16.535156 14.75 16.738281 15 16.738281 C 15.25 16.738281 15.453125 16.535156 15.453125 16.285156 C 15.453125 16.011719 15.25 15.832031 15 15.832031 Z M 15 15.832031 " fill-opacity="1" fill-rule="nonzero"/><path fill="#bfa575" d="M 15 26.378906 C 14.75 26.378906 14.546875 26.582031 14.546875 26.832031 C 14.546875 27.082031 14.75 27.285156 15 27.285156 C 15.25 27.285156 15.453125 27.082031 15.453125 26.832031 C 15.453125 26.558594 15.25 26.378906 15 26.378906 Z M 15 26.378906 " fill-opacity="1" fill-rule="nonzero"/><path fill="#bfa575" d="M 15 12.316406 C 14.75 12.316406 14.546875 12.519531 14.546875 12.769531 C 14.546875 13.019531 14.75 13.222656 15 13.222656 C 15.25 13.222656 15.453125 13.019531 15.453125 12.769531 C 15.453125 12.496094 15.25 12.316406 15 12.316406 Z M 15 12.316406 " fill-opacity="1" fill-rule="nonzero"/><path fill="#bfa575" d="M 15 1.769531 C 14.75 1.769531 14.546875 1.972656 14.546875 2.222656 C 14.546875 2.472656 14.75 2.675781 15 2.675781 C 15.25 2.675781 15.453125 2.472656 15.453125 2.222656 C 15.453125 1.949219 15.25 1.769531 15 1.769531 Z M 15 1.769531 " fill-opacity="1" fill-rule="nonzero"/><path fill="#bfa575" d="M 15 21.09375 C 14.75 21.09375 14.546875 21.296875 14.546875 21.546875 C 14.546875 21.796875 14.75 22 15 22 C 15.25 22 15.453125 21.796875 15.453125 21.546875 C 15.453125 21.296875 15.25 21.09375 15 21.09375 Z M 15 21.09375 " fill-opacity="1" fill-rule="nonzero"/><path fill="#bfa575" d="M 15 19.347656 C 14.75 19.347656 14.546875 19.550781 14.546875 19.800781 C 14.546875 20.050781 14.75 20.253906 15 20.253906 C 15.25 20.253906 15.453125 20.050781 15.453125 19.800781 C 15.453125 19.527344 15.25 19.347656 15 19.347656 Z M 15 19.347656 " fill-opacity="1" fill-rule="nonzero"/><path fill="#bfa575" d="M 15 3.515625 C 14.75 3.515625 14.546875 3.71875 14.546875 3.96875 C 14.546875 4.21875 14.75 4.421875 15 4.421875 C 15.25 4.421875 15.453125 4.21875 15.453125 3.96875 C 15.453125 3.71875 15.25 3.515625 15 3.515625 Z M 15 3.515625 " fill-opacity="1" fill-rule="nonzero"/><path fill="#bfa575" d="M 15 22.863281 C 14.75 22.863281 14.546875 23.066406 14.546875 23.316406 C 14.546875 23.566406 14.75 23.769531 15 23.769531 C 15.25 23.769531 15.453125 23.566406 15.453125 23.316406 C 15.453125 23.042969 15.25 22.863281 15 22.863281 Z M 15 22.863281 " fill-opacity="1" fill-rule="nonzero"/><path fill="#bfa575" d="M 15 24.609375 C 14.75 24.609375 14.546875 24.8125 14.546875 25.0625 C 14.546875 25.3125 14.75 25.515625 15 25.515625 C 15.25 25.515625 15.453125 25.3125 15.453125 25.0625 C 15.453125 24.8125 15.25 24.609375 15 24.609375 Z M 15 24.609375 " fill-opacity="1" fill-rule="nonzero"/><path fill="#bfa575" d="M 15 7.03125 C 14.75 7.03125 14.546875 7.234375 14.546875 7.484375 C 14.546875 7.734375 14.75 7.9375 15 7.9375 C 15.25 7.9375 15.453125 7.734375 15.453125 7.484375 C 15.453125 7.234375 15.25 7.03125 15 7.03125 Z M 15 7.03125 " fill-opacity="1" fill-rule="nonzero"/><path fill="#bfa575" d="M 15 5.285156 C 14.75 5.285156 14.546875 5.488281 14.546875 5.738281 C 14.546875 5.988281 14.75 6.191406 15 6.191406 C 15.25 6.191406 15.453125 5.988281 15.453125 5.738281 C 15.453125 5.464844 15.25 5.285156 15 5.285156 Z M 15 5.285156 " fill-opacity="1" fill-rule="nonzero"/><path fill="#bfa575" d="M 15 8.800781 C 14.75 8.800781 14.546875 9.003906 14.546875 9.253906 C 14.546875 9.503906 14.75 9.707031 15 9.707031 C 15.25 9.707031 15.453125 9.503906 15.453125 9.253906 C 15.453125 8.980469 15.25 8.800781 15 8.800781 Z M 15 8.800781 " fill-opacity="1" fill-rule="nonzero"/><path fill="#bfa575" d="M 15 10.546875 C 14.75 10.546875 14.546875 10.75 14.546875 11 C 14.546875 11.25 14.75 11.453125 15 11.453125 C 15.25 11.453125 15.453125 11.25 15.453125 11 C 15.453125 10.75 15.25 10.546875 15 10.546875 Z M 15 10.546875 " fill-opacity="1" fill-rule="nonzero"/><path fill="#bfa575" d="M 15 17.578125 C 14.75 17.578125 14.546875 17.78125 14.546875 18.03125 C 14.546875 18.28125 14.75 18.484375 15 18.484375 C 15.25 18.484375 15.453125 18.28125 15.453125 18.03125 C 15.453125 17.78125 15.25 17.578125 15 17.578125 Z M 15 17.578125 " fill-opacity="1" fill-rule="nonzero"/><path fill="#bfa575" d="M 22.484375 14.515625 C 22.484375 14.265625 22.28125 14.0625 22.03125 14.0625 C 21.78125 14.0625 21.578125 14.265625 21.578125 14.515625 C 21.578125 14.765625 21.78125 14.96875 22.03125 14.96875 C 22.28125 14.96875 22.484375 14.765625 22.484375 14.515625 Z M 22.484375 14.515625 " fill-opacity="1" fill-rule="nonzero"/><path fill="#bfa575" d="M 2.707031 14.0625 C 2.457031 14.0625 2.253906 14.265625 2.253906 14.515625 C 2.253906 14.765625 2.457031 14.96875 2.707031 14.96875 C 2.957031 14.96875 3.160156 14.765625 3.160156 14.515625 C 3.160156 14.265625 2.933594 14.0625 2.707031 14.0625 Z M 2.707031 14.0625 " fill-opacity="1" fill-rule="nonzero"/><g clip-path="url(#61e6ab256b)"><path fill="#bfa575" d="M 0.9375 14.0625 C 0.6875 14.0625 0.484375 14.265625 0.484375 14.515625 C 0.484375 14.765625 0.6875 14.96875 0.9375 14.96875 C 1.1875 14.96875 1.390625 14.765625 1.390625 14.515625 C 1.390625 14.265625 1.1875 14.0625 0.9375 14.0625 Z M 0.9375 14.0625 " fill-opacity="1" fill-rule="nonzero"/></g><g clip-path="url(#40d2813d87)"><path fill="#bfa575" d="M 29.0625 14.0625 C 28.8125 14.0625 28.609375 14.265625 28.609375 14.515625 C 28.609375 14.765625 28.8125 14.96875 29.0625 14.96875 C 29.3125 14.96875 29.515625 14.765625 29.515625 14.515625 C 29.515625 14.265625 29.3125 14.0625 29.0625 14.0625 Z M 29.0625 14.0625 " fill-opacity="1" fill-rule="nonzero"/></g><path fill="#bfa575" d="M 5.769531 14.515625 C 5.769531 14.765625 5.972656 14.96875 6.222656 14.96875 C 6.472656 14.96875 6.675781 14.765625 6.675781 14.515625 C 6.675781 14.265625 6.472656 14.0625 6.222656 14.0625 C 5.949219 14.0625 5.769531 14.265625 5.769531 14.515625 Z M 5.769531 14.515625 " fill-opacity="1" fill-rule="nonzero"/><path fill="#bfa575" d="M 9.738281 14.96875 C 9.988281 14.96875 10.191406 14.765625 10.191406 14.515625 C 10.191406 14.265625 9.988281 14.0625 9.738281 14.0625 C 9.488281 14.0625 9.285156 14.265625 9.285156 14.515625 C 9.285156 14.765625 9.464844 14.96875 9.738281 14.96875 Z M 9.738281 14.96875 " fill-opacity="1" fill-rule="nonzero"/><path fill="#bfa575" d="M 16.769531 14.0625 C 16.519531 14.0625 16.316406 14.265625 16.316406 14.515625 C 16.316406 14.765625 16.519531 14.96875 16.769531 14.96875 C 17.019531 14.96875 17.222656 14.765625 17.222656 14.515625 C 17.222656 14.265625 16.996094 14.0625 16.769531 14.0625 Z M 16.769531 14.0625 " fill-opacity="1" fill-rule="nonzero"/><path fill="#bfa575" d="M 27.316406 14.0625 C 27.066406 14.0625 26.863281 14.265625 26.863281 14.515625 C 26.863281 14.765625 27.066406 14.96875 27.316406 14.96875 C 27.566406 14.96875 27.769531 14.765625 27.769531 14.515625 C 27.769531 14.265625 27.542969 14.0625 27.316406 14.0625 Z M 27.316406 14.0625 " fill-opacity="1" fill-rule="nonzero"/><path fill="#bfa575" d="M 20.738281 14.515625 C 20.738281 14.265625 20.535156 14.0625 20.285156 14.0625 C 20.035156 14.0625 19.832031 14.265625 19.832031 14.515625 C 19.832031 14.765625 20.035156 14.96875 20.285156 14.96875 C 20.511719 14.96875 20.738281 14.765625 20.738281 14.515625 Z M 20.738281 14.515625 " fill-opacity="1" fill-rule="nonzero"/><path fill="#bfa575" d="M 23.800781 14.0625 C 23.550781 14.0625 23.347656 14.265625 23.347656 14.515625 C 23.347656 14.765625 23.550781 14.96875 23.800781 14.96875 C 24.050781 14.96875 24.253906 14.765625 24.253906 14.515625 C 24.253906 14.265625 24.027344 14.0625 23.800781 14.0625 Z M 23.800781 14.0625 " fill-opacity="1" fill-rule="nonzero"/><path fill="#bfa575" d="M 4.453125 14.0625 C 4.203125 14.0625 4 14.265625 4 14.515625 C 4 14.765625 4.203125 14.96875 4.453125 14.96875 C 4.703125 14.96875 4.90625 14.765625 4.90625 14.515625 C 4.90625 14.265625 4.703125 14.0625 4.453125 14.0625 Z M 4.453125 14.0625 " fill-opacity="1" fill-rule="nonzero"/><path fill="#bfa575" d="M 7.515625 14.515625 C 7.515625 14.765625 7.71875 14.96875 7.96875 14.96875 C 8.21875 14.96875 8.421875 14.765625 8.421875 14.515625 C 8.421875 14.265625 8.21875 14.0625 7.96875 14.0625 C 7.71875 14.0625 7.515625 14.265625 7.515625 14.515625 Z M 7.515625 14.515625 " fill-opacity="1" fill-rule="nonzero"/><path fill="#bfa575" d="M 18.515625 14.0625 C 18.265625 14.0625 18.0625 14.265625 18.0625 14.515625 C 18.0625 14.765625 18.265625 14.96875 18.515625 14.96875 C 18.765625 14.96875 18.96875 14.765625 18.96875 14.515625 C 18.96875 14.265625 18.765625 14.0625 18.515625 14.0625 Z M 18.515625 14.0625 " fill-opacity="1" fill-rule="nonzero"/><path fill="#bfa575" d="M 11.484375 14.0625 C 11.234375 14.0625 11.03125 14.265625 11.03125 14.515625 C 11.03125 14.765625 11.234375 14.96875 11.484375 14.96875 C 11.734375 14.96875 11.9375 14.765625 11.9375 14.515625 C 11.9375 14.265625 11.734375 14.0625 11.484375 14.0625 Z M 11.484375 14.0625 " fill-opacity="1" fill-rule="nonzero"/><path fill="#bfa575" d="M 13.253906 14.0625 C 13.003906 14.0625 12.800781 14.265625 12.800781 14.515625 C 12.800781 14.765625 13.003906 14.96875 13.253906 14.96875 C 13.503906 14.96875 13.707031 14.765625 13.707031 14.515625 C 13.707031 14.265625 13.480469 14.0625 13.253906 14.0625 Z M 13.253906 14.0625 " fill-opacity="1" fill-rule="nonzero"/><path fill="#bfa575" d="M 26 14.515625 C 26 14.265625 25.796875 14.0625 25.546875 14.0625 C 25.296875 14.0625 25.09375 14.265625 25.09375 14.515625 C 25.09375 14.765625 25.296875 14.96875 25.546875 14.96875 C 25.796875 14.96875 26 14.765625 26 14.515625 Z M 26 14.515625 " fill-opacity="1" fill-rule="nonzero"/><path fill="#bfa575" d="M 15 14.0625 C 14.75 14.0625 14.546875 14.265625 14.546875 14.515625 C 14.546875 14.765625 14.75 14.96875 15 14.96875 C 15.25 14.96875 15.453125 14.765625 15.453125 14.515625 C 15.453125 14.265625 15.25 14.0625 15 14.0625 Z M 15 14.0625 " fill-opacity="1" fill-rule="nonzero"/><path fill="#bfa575" d="M 15 0 C 14.75 0 14.546875 0.203125 14.546875 0.453125 C 14.546875 0.703125 14.75 0.90625 15 0.90625 C 15.25 0.90625 15.453125 0.703125 15.453125 0.453125 C 15.453125 0.203125 15.25 0 15 0 Z M 15 0 " fill-opacity="1" fill-rule="nonzero"/><g clip-path="url(#5ef22c2a70)"><path fill="#bfa575" d="M 15 28.125 C 14.75 28.125 14.546875 28.328125 14.546875 28.578125 C 14.546875 28.828125 14.75 29.03125 15 29.03125 C 15.25 29.03125 15.453125 28.828125 15.453125 28.578125 C 15.453125 28.328125 15.25 28.125 15 28.125 Z M 15 28.125 " fill-opacity="1" fill-rule="nonzero"/></g></svg>