<svg xmlns="http://www.w3.org/2000/svg" xmlns:xlink="http://www.w3.org/1999/xlink" width="50" zoomAndPan="magnify" viewBox="0 0 30 30.000001" height="50" preserveAspectRatio="xMidYMid meet" version="1.0"><defs><clipPath id="59ba61dee4"><path d="M 5.960938 0 L 24 0 L 24 18 L 5.960938 18 Z M 5.960938 0 " clip-rule="nonzero"/></clipPath><clipPath id="2469b47180"><path d="M 10 16 L 19 16 L 19 29.03125 L 10 29.03125 Z M 10 16 " clip-rule="nonzero"/></clipPath></defs><path fill="#bfa575" d="M 12.253906 13.511719 C 12.078125 13.511719 11.898438 13.457031 11.746094 13.351562 C 11.46875 13.15625 11.328125 12.828125 11.382812 12.492188 L 11.773438 9.960938 C 11.773438 9.945312 11.769531 9.933594 11.761719 9.925781 L 9.894531 8.167969 C 9.648438 7.933594 9.558594 7.589844 9.65625 7.265625 C 9.757812 6.941406 10.027344 6.703125 10.359375 6.648438 L 12.890625 6.238281 C 12.902344 6.238281 12.914062 6.230469 12.917969 6.21875 L 14.015625 3.902344 C 14.160156 3.59375 14.460938 3.402344 14.800781 3.394531 C 15.136719 3.386719 15.445312 3.574219 15.601562 3.875 L 16.773438 6.152344 C 16.78125 6.164062 16.789062 6.171875 16.804688 6.171875 L 19.34375 6.5 C 19.679688 6.542969 19.957031 6.769531 20.070312 7.089844 C 20.179688 7.410156 20.097656 7.757812 19.859375 8 L 18.054688 9.820312 C 18.046875 9.828125 18.042969 9.839844 18.046875 9.855469 L 18.519531 12.371094 C 18.582031 12.703125 18.453125 13.039062 18.183594 13.242188 C 17.914062 13.445312 17.554688 13.480469 17.253906 13.324219 L 14.964844 12.171875 C 14.953125 12.164062 14.941406 12.167969 14.929688 12.171875 L 12.679688 13.402344 C 12.546875 13.476562 12.402344 13.511719 12.253906 13.511719 Z M 14.8125 4.238281 C 14.789062 4.242188 14.78125 4.253906 14.777344 4.261719 L 13.683594 6.578125 C 13.558594 6.839844 13.3125 7.027344 13.023438 7.074219 L 10.496094 7.484375 C 10.488281 7.484375 10.472656 7.488281 10.464844 7.511719 C 10.457031 7.535156 10.46875 7.546875 10.476562 7.550781 L 12.339844 9.308594 C 12.550781 9.507812 12.652344 9.800781 12.605469 10.089844 L 12.214844 12.621094 C 12.214844 12.628906 12.210938 12.644531 12.234375 12.660156 C 12.253906 12.671875 12.265625 12.664062 12.273438 12.660156 L 14.523438 11.429688 C 14.777344 11.292969 15.085938 11.285156 15.347656 11.417969 L 17.632812 12.570312 C 17.640625 12.574219 17.65625 12.582031 17.675781 12.566406 C 17.695312 12.550781 17.691406 12.535156 17.691406 12.527344 L 17.214844 10.011719 C 17.160156 9.726562 17.25 9.429688 17.457031 9.222656 L 19.257812 7.40625 C 19.265625 7.398438 19.277344 7.386719 19.269531 7.363281 C 19.261719 7.339844 19.246094 7.339844 19.238281 7.335938 L 16.695312 7.011719 C 16.40625 6.976562 16.15625 6.796875 16.023438 6.539062 L 14.851562 4.261719 C 14.84375 4.253906 14.839844 4.238281 14.8125 4.238281 Z M 14.8125 4.238281 " fill-opacity="1" fill-rule="nonzero"/><g clip-path="url(#59ba61dee4)"><path fill="#bfa575" d="M 14.867188 17.785156 C 9.964844 17.785156 5.972656 13.796875 5.972656 8.894531 C 5.972656 3.988281 9.964844 0 14.867188 0 C 19.769531 0 23.761719 3.988281 23.761719 8.894531 C 23.761719 13.796875 19.769531 17.785156 14.867188 17.785156 Z M 14.867188 0.84375 C 10.429688 0.84375 6.820312 4.457031 6.820312 8.894531 C 6.820312 13.332031 10.429688 16.941406 14.867188 16.941406 C 19.304688 16.941406 22.914062 13.332031 22.914062 8.894531 C 22.914062 4.457031 19.304688 0.84375 14.867188 0.84375 Z M 14.867188 0.84375 " fill-opacity="1" fill-rule="nonzero"/></g><g clip-path="url(#2469b47180)"><path fill="#bfa575" d="M 18.371094 29.007812 C 18.292969 29.007812 18.21875 28.988281 18.152344 28.949219 L 14.867188 26.988281 L 11.582031 28.949219 C 11.449219 29.027344 11.289062 29.03125 11.15625 28.957031 C 11.023438 28.878906 10.941406 28.738281 10.941406 28.585938 L 10.941406 16.664062 C 10.941406 16.433594 11.132812 16.242188 11.363281 16.242188 C 11.597656 16.242188 11.785156 16.433594 11.785156 16.664062 L 11.785156 27.84375 L 14.648438 26.132812 C 14.785156 26.050781 14.949219 26.050781 15.082031 26.132812 L 17.945312 27.84375 L 17.945312 16.664062 C 17.945312 16.433594 18.136719 16.242188 18.371094 16.242188 C 18.601562 16.242188 18.792969 16.433594 18.792969 16.664062 L 18.792969 28.585938 C 18.792969 28.738281 18.710938 28.878906 18.578125 28.953125 C 18.511719 28.992188 18.441406 29.007812 18.371094 29.007812 Z M 18.371094 29.007812 " fill-opacity="1" fill-rule="nonzero"/></g></svg>